<?xml version="1.0" encoding="utf-8"?>
<!-- Generator: Adobe Illustrator 25.2.3, SVG Export Plug-In . SVG Version: 6.00 Build 0)  -->
<svg version="1.1" id="Capa_1" xmlns="http://www.w3.org/2000/svg" xmlns:xlink="http://www.w3.org/1999/xlink" x="0px"
    y="0px" viewBox="0 0 287.32 279.33" style="enable-background:new 0 0 287.32 279.33;" xml:space="preserve">
    <style type="text/css">
        .st0 {
            fill: #161616;
        }
    </style>
    <g>
        <g>
            <path class="st0" d="M232.46,130.77c3.21,0,5.95-0.04,8.69,0.01c6.39,0.1,10.6,4.37,10.62,10.71c0.01,2.91,0.05,5.82-0.01,8.73
			c-0.13,6.23,0.02,12.36,2.1,18.41c1.11,3.22,1.22,6.86,1.35,10.33c0.21,5.57,0.06,11.14,0.05,16.72c0,3.92-1.06,4.95-5.07,4.97
			c-3.08,0.01-6.16,0.02-9.23,0.04c-0.16,0-0.31,0.1-0.47,0.15c2.36,11.4-0.65,20.95-10.57,27.36c-8.58,5.54-17.82,5.5-26.36-0.11
			c-9.78-6.43-12.76-15.9-10.38-27.32c-28.45,0-56.87,0-85.47,0c2.45,12-0.95,21.85-11.69,28.09c-8.54,4.97-17.56,4.56-25.71-1.07
			c-9.44-6.52-12.27-15.88-9.89-27.14c-3.46,0-6.86,0.02-10.27-0.01c-3.43-0.03-4.6-1.27-4.55-4.72
			c0.23-18.22,15.04-34.67,33.18-36.73c1.99-0.23,2.97-0.96,3.62-2.92c5.59-17.04,11.3-34.04,16.96-51.06
			c0.23-0.69,0.4-1.41,0.68-2.39c-4.99,0-9.79,0.01-14.58,0c-3.83-0.01-4.92-1.09-4.92-4.87c-0.01-8.48-0.01-16.97,0-25.45
			c0-3.44,1.17-4.61,4.67-4.62c8.4-0.02,16.81-0.1,25.21,0.06c2.23,0.04,3.16-0.73,3.95-2.7c2.52-6.24,5.32-12.36,7.86-18.58
			c0.96-2.36,2.5-3.35,4.97-3.26c1.91,0.07,3.82,0.01,5.49,0.01c1.25-2.34,2.17-4.68,3.59-6.64c3.87-5.31,11.02-5.04,14.72,0.41
			c3.98,5.86,3.97,13.65-0.02,19.48c-3.72,5.43-10.85,5.67-14.73,0.34c-1.38-1.9-2.27-4.17-3.56-6.6c-0.82,0-2.08-0.12-3.28,0.05
			c-0.59,0.09-1.35,0.61-1.59,1.14c-2.1,4.7-4.11,9.44-6.14,14.17c-0.26,0.6-0.48,1.22-0.58,1.5c3.09,1.59,6.54,2.61,8.92,4.79
			c2.62,2.41,5.2,3.03,8.46,2.82c2.82-0.18,5.66-0.1,8.48-0.01c6.02,0.18,10.47,4.68,10.46,10.48c-0.01,5.78-4.48,10.29-10.51,10.44
			c-3.99,0.1-7.99-0.06-11.98,0.08c-1.01,0.04-2.06,0.67-2.99,1.22c-2.68,1.58-5.35,3.2-7.94,4.93c-0.76,0.51-1.74,1.4-1.78,2.16
			c-0.61,11.94-2.19,23.87-0.77,35.87c1.61,13.64,5.84,26.39,12.68,38.29c1.44,2.51,3.68,0.84,5.99,1.42
			c-1.21-15.56,0.85-30.03,11.51-42.22c-6.07-1.64-10.07-5.18-11.21-10.95c-1.03-5.2-1.13-10.59,0.48-15.79
			c1.52-4.89,7.29-7.51,12.91-6.15c4.6,1.12,9.23,2.1,13.85,3.11c1.13,0.25,2.29,0.36,3.71,0.58c0-1.12,0-2.09,0-3.07
			c0-19.38,0-38.76,0-58.15c0-8.15,5.71-14.12,13.89-14.16c18.72-0.1,37.44-0.1,56.16,0c8.16,0.05,13.83,6.05,13.83,14.22
			c0,21.46,0,42.92,0,64.39c0,4.26-0.97,5.21-5.32,5.22c-5.65,0.01-11.3,0-17.47,0C234.88,121.5,234.91,126.06,232.46,130.77z
			 M180.86,137.76c-6.63,0-12.61-0.03-18.59,0.04c-0.72,0.01-1.58,0.46-2.13,0.97c-7.15,6.64-11.61,14.82-12.67,24.49
			c-0.67,6.09-0.42,12.28-0.52,18.43c-0.07,3.85-1.07,4.95-4.82,4.97c-2.5,0.02-5-0.11-7.49,0.03c-2.64,0.15-4.28-0.93-5.63-3.21
			c-11.96-20.1-16.69-41.79-14.73-65.03c0.43-5.12,0.61-10.25,0.92-15.64c-1.78,0-3.36,0.18-4.89-0.04
			c-2.31-0.34-3.1,0.74-3.76,2.77c-5.57,16.96-11.25,33.88-16.89,50.82c-0.27,0.82-0.48,1.67-0.69,2.43
			c19.26,4.08,30.4,15.58,33.54,34.7c18.67,0,37.27,0,55.84,0c4.04-34.99,48.09-47.2,69.38-19.67c-0.04-0.65-0.02-1.14-0.11-1.61
			c-4.21-22.85-26.11-37.94-48.97-33.73c-19.67,3.62-34.16,20.93-34.24,40.92c-0.01,2.38,0,4.76,0,7.08c-2.53,0-4.72,0-6.89,0
			C156.11,165.98,163.29,149.73,180.86,137.76z M248.26,109.86c0-1.26,0-2.16,0-3.06c0-19.38-0.14-38.76,0.08-58.13
			c0.07-6.41-3.41-8.83-8.72-8.79c-17.55,0.14-35.1,0.04-52.65,0.07c-1.23,0-2.5,0.11-3.7,0.39c-3.04,0.71-4.75,3.1-4.74,6.6
			c20.84,0,41.68,0,62.59,0c0,2.42,0,4.61,0,7.07c-20.98,0-41.8,0-62.61,0c0,18.54,0,36.8,0,55.58c6.97,0,13.82,0,20.65,0
			c0,2.71,0,4.9,0,7.46c-7.58-0.32-15.02-0.17-22.34-1.06c-8.22-1-16.33-2.9-24.47-4.51c-3.06-0.6-4.9,0.39-5.29,3.52
			c-0.26,2.13,0.03,4.33-0.16,6.47c-0.53,5.92,3.24,9.38,9.2,9.34c20.88-0.14,41.75-0.05,62.63-0.07c1.07,0,2.16-0.1,3.21-0.33
			c3.19-0.7,5.33-3.41,5.35-6.6c0.01-3.2-2.11-6.02-5.28-6.63c-1.86-0.35-3.79-0.34-5.7-0.38c-3.29-0.05-6.58-0.02-9.86-0.02
			c0-2.5,0-4.63,0-6.94C220.35,109.86,234.13,109.86,248.26,109.86z M115.08,193.53c-0.57-15.05-15.93-28.35-31.73-27.8
			c-19.18,0.66-30.08,16.58-30.23,27.8C73.77,193.53,94.42,193.53,115.08,193.53z M247.87,193.56
			c-0.67-15.18-15.95-28.39-31.76-27.84c-19.26,0.67-30.11,16.71-30.21,27.84C206.49,193.56,227.07,193.56,247.87,193.56z
			 M87.66,74.97c0,7.04,0,13.83,0,20.73c10.61,0,21.1,0,32.33,0c-5.18-2.1-7.96-5.35-7.97-10.38c0-5.03,2.9-8.2,7.7-10.3
			c-6.32,0-12.17,0-18.29,0c0,4.66,0,9.18,0,13.63c-2.47,0-4.66,0-7.02,0c0-4.66,0-9.12,0-13.67C92.1,74.97,89.97,74.97,87.66,74.97
			z M75.75,200.65c-1.88,0-3.7,0.15-5.48-0.04c-1.89-0.2-2.62,0.62-3.1,2.32c-3.06,10.84,4.76,21.49,16.32,22.13
			c11.73,0.65,21.08-11.72,17.13-22.72c-0.23-0.65-0.93-1.56-1.47-1.6c-2.25-0.18-4.53-0.08-6.96-0.08
			c3.41,6.68,2.94,11.21-1.35,14.96c-3.55,3.1-9,3.32-12.94,0.52C73.24,212.84,72.56,208.21,75.75,200.65z M208.62,200.65
			c-1.91,0-3.59,0.17-5.22-0.04c-2.22-0.29-3.04,0.72-3.54,2.71c-3.26,12.88,8.42,24.41,21.51,21.19
			c9.43-2.32,15.4-13.38,11.98-22.3c-0.24-0.62-1-1.43-1.57-1.47c-2.19-0.17-4.4-0.07-6.72-0.07c3.24,7.11,2.67,11.73-1.74,15.23
			c-3.81,3.02-9.44,2.96-13.15-0.13C205.82,212.13,205.3,207.55,208.62,200.65z M134.78,88.84c3.83,0,7.65,0.04,11.48-0.01
			c2.53-0.03,4.08-1.35,4.15-3.36c0.07-2.11-1.55-3.57-4.18-3.58c-7.65-0.04-15.3-0.03-22.96,0c-2.69,0.01-4.29,1.37-4.28,3.49
			c0.01,2.1,1.62,3.44,4.31,3.46C127.13,88.87,130.95,88.84,134.78,88.84z M139.57,46.94c0.61,1.84,0.96,3.64,1.77,5.21
			c1.13,2.18,2.82,2.15,4.17,0.14c1.92-2.85,1.89-8.08-0.06-10.84c-1.31-1.87-2.96-1.92-4.03,0.12
			C140.56,43.2,140.19,45.09,139.57,46.94z M232.3,137.76c4.25,3.69,8.31,7.21,12.47,10.82c0-2.31,0.03-4.68-0.01-7.05
			c-0.05-2.6-1.16-3.71-3.83-3.76C238.12,137.72,235.31,137.76,232.3,137.76z M84.08,211.08c1.89-0.02,3.49-1.68,3.43-3.55
			c-0.06-1.77-1.6-3.3-3.39-3.34c-1.88-0.05-3.55,1.55-3.56,3.43C80.55,209.48,82.19,211.1,84.08,211.08z M216.94,204.19
			c-1.88-0.07-3.56,1.52-3.59,3.39c-0.03,1.77,1.45,3.36,3.24,3.5c1.87,0.14,3.61-1.39,3.72-3.26
			C220.4,205.95,218.83,204.25,216.94,204.19z" />
            <path class="st0"
                d="M213.23,60.89c7.73,0,15.46-0.01,23.19,0c3.87,0.01,5.17,1.27,4.81,5.16c-0.78,8.39-4.66,14.98-11.98,19.3
			c-1.5,0.89-2.04,1.81-1.98,3.49c0.13,3.24,0.06,6.48,0.03,9.72c-0.03,2.87-1.23,4.2-4.03,4.23c-6.65,0.06-13.3,0.06-19.95,0
			c-2.7-0.02-3.94-1.35-3.97-4.04c-0.04-3.41-0.11-6.82,0.03-10.22c0.06-1.56-0.53-2.32-1.82-3.08
			c-7.59-4.47-11.55-11.25-12.16-19.96c-0.23-3.27,1.12-4.59,4.39-4.6C197.6,60.87,205.42,60.89,213.23,60.89z M233.69,68
			c-13.68,0-27.19,0-40.7,0c0.73,6.26,6.37,12.37,13.14,13.28c4.71,0.63,9.64,0.63,14.35,0.01C227.25,80.39,232.8,74.41,233.69,68z
			 M220.23,88.9c-4.73,0-9.23,0-13.73,0c0,2.36,0,4.56,0,6.75c4.67,0,9.17,0,13.73,0C220.23,93.34,220.23,91.21,220.23,88.9z" />
        </g>
    </g>
</svg>