<svg width="1177.82" height="725.16" xmlns="http://www.w3.org/2000/svg" xmlns:xlink="http://www.w3.org/1999/xlink">
 <defs>
  <linearGradient y2="0" x2="0.50017" y1="1.00031" x1="0.50017" id="a17f7adb-619f-4eca-9f9e-ffa615402df6">
   <stop stop-opacity="0.25" stop-color="gray" offset="0"/>
   <stop stop-opacity="0.12" stop-color="gray" offset="0.54"/>
   <stop stop-opacity="0.1" stop-color="gray" offset="1"/>
  </linearGradient>
  <linearGradient xlink:href="#a17f7adb-619f-4eca-9f9e-ffa615402df6" y2="709.84" x2="622.29" y1="709.84" x1="552.73" id="afa9d3b0-698e-4c8c-85f1-7e162fccf1ba"/>
 </defs>
 <title>printing invoices</title>
 <g>
  <title>background</title>
  <rect fill="none" id="canvas_background" height="727.16" width="1179.82" y="-1" x="-1"/>
 </g>
 <g>
  <title>Layer 1</title>
  <path id="svg_2" opacity="0.1" fill="#18bdff" d="m1065.82,663.14c0,22.73 -23.56,44 -64.67,62.32l-776.56,0c-35.93,0 -69.58,-13 -98.42,-35.67c-7.25,-8.6 -11.07,-17.51 -11.07,-26.66c0,-24.16 26.64,-46.71 72.7,-65.77l0,0l1.3,-0.52c13,-5.33 27.53,-10.36 43.41,-15.09c0.4,-0.12 0.81,-0.23 1.21,-0.37l0,0q18.9,-5.55 40.21,-10.52c0.45,-0.1 0.89,-0.21 1.34,-0.29c5.48,-1.3 11.07,-2.51 16.78,-3.72l0,0l2.2,-0.46c41.55,-8.62 88.78,-15.46 140,-20.1l0.06,0q10.76,-1 21.75,-1.79c8.15,-0.65 16.4,-1.2 24.74,-1.71c6.37,-0.41 12.82,-0.76 19.29,-1.08a0.19,0.19 0 0 1 0.15,0c29.19,-1.47 59.35,-2.24 90.19,-2.24c76.26,0 148.34,4.68 212.21,13a0.52,0.52 0 0 1 0.18,0c9.82,1.28 19.46,2.63 28.86,4.07c2.69,0.42 5.37,0.84 8,1.27q15.91,2.57 31,5.43l0,0c118.3,22.49 195.14,58.88 195.14,99.9z"/>
  <path id="svg_6" fill="#444053" d="m754.62,189.47l0.22,0.38c-20.38,25.45 -21.73,65 -21.78,65.31l-4.3,-5c0.05,-0.32 5.34,-35.06 25.86,-60.69z"/>
  <path id="svg_11" stroke-miterlimit="10" stroke="#444053" fill="none" d="m764.32,251.72s-11,-23.1 -1.21,-38.13"/>
  <path id="svg_24" stroke-miterlimit="10" stroke="#444053" fill="none" d="m742.29,179.15s0,21.25 -5.78,22.76"/>
  <path id="svg_25" stroke-miterlimit="10" stroke="#444053" fill="none" d="m695,206.68s23,2 33.57,-9.89"/>
  <rect id="svg_30" fill="#33323d" height="193.94" width="384.2" y="225.58" x="395.21"/>
  <rect id="svg_31" fill="#33323d" height="127.66" width="624.78" y="478.44" x="275.53"/>
  <polygon stroke="#000000" id="svg_32" fill="#fff" points="425.6700134277344,510.3500061035156 746.0399780273438,510.3500061035156 809.8699951171875,707.1599731445312 358.1600036621094,707.1599731445312 425.6700134277344,510.3500061035156 "/>
  <polygon id="svg_33" fill="#504f60" points="257.73 402.33 257.73 468.62 257.73 482.58 257.73 606.09 377.41 606.09 377.41 488.26 798.43 488.26 798.43 606.09 918.11 606.09 918.11 482.58 918.11 468.62 918.11 402.33 257.73 402.33"/>
  <rect id="svg_34" opacity="0.1" fill="#33323d" height="66.28" width="660.38" y="402.33" x="257.73"/>
  <circle id="svg_35" opacity="0.8" fill="#ff00ff" r="9.82" cy="435.48" cx="896.52"/>
  <circle id="svg_36" opacity="0.8" fill="#00ffff" r="9.82" cy="435.48" cx="848.33"/>
  <rect stroke="#191919" id="svg_37" fill="#fff" height="211.12" width="355.97" y="178.93" x="408.33"/>
  <path id="svg_110" d="m587.91,629" opacity="0.5" fill-opacity="null" stroke-opacity="null" stroke-width="null" stroke="null" fill="url(#afa9d3b0-698e-4c8c-85f1-7e162fccf1ba)"/>
  <circle id="svg_111" opacity="0.8" fill="#ffff00" r="9.82" cy="435.48" cx="872.33"/>
 </g>
</svg>