<svg width="1177.82" height="725.16" xmlns="http://www.w3.org/2000/svg" xmlns:xlink="http://www.w3.org/1999/xlink">
 <defs>
  <linearGradient y2="0" x2="0.50017" y1="1.00031" x1="0.50017" id="a17f7adb-619f-4eca-9f9e-ffa615402df6">
   <stop stop-opacity="0.25" stop-color="gray" offset="0"/>
   <stop stop-opacity="0.12" stop-color="gray" offset="0.54"/>
   <stop stop-opacity="0.1" stop-color="gray" offset="1"/>
  </linearGradient>
  <linearGradient xlink:href="#a17f7adb-619f-4eca-9f9e-ffa615402df6" y2="709.84" x2="622.29" y1="709.84" x1="552.73" id="afa9d3b0-698e-4c8c-85f1-7e162fccf1ba"/>
 </defs>
 <title>printing invoices</title>
 <g>
  <title>background</title>
  <rect fill="none" id="canvas_background" height="602" width="802" y="-1" x="-1"/>
 </g>
 <g>
  <title>Layer 1</title>
  <path id="svg_1" opacity="0.1" fill="#6c63ff" d="m1176.82,464.31a241.36,241.36 0 0 1 -7.07,58.24q-2.38,9.62 -5.53,18.86a224.65,224.65 0 0 1 -8.92,22.32q-2.55,5.51 -5.39,10.82a145.59,145.59 0 0 1 -12.17,58.49a150.86,150.86 0 0 1 -73.18,75.4a154,154 0 0 1 -65.41,15l-776.56,0a195.67,195.67 0 0 1 -98.42,-26.3q-6.63,-3.84 -12.92,-8.18a195.41,195.41 0 0 1 -25.57,-21.08a190.28,190.28 0 0 1 -28.11,-34.87a185.86,185.86 0 0 1 -28.59,-99.23c-18.95,-33.25 -30,-73.08 -30,-115.88c0,-54 17.56,-103.26 46.41,-140.55a197.6,197.6 0 0 1 19.71,-21.93a183.42,183.42 0 0 1 22.54,-18.45a173.94,173.94 0 0 1 20,-12c2.89,-1.48 5.79,-2.86 8.74,-4.15c2.59,-1.15 5.21,-2.22 7.86,-3.23q4.77,-1.82 9.66,-3.33t9.65,-2.66q7,-1.71 14.24,-2.78c4,-0.59 8,-1 12,-1.32q4.77,-0.34 9.62,-0.4l1.75,0c3.56,0 7.1,0.14 10.61,0.38c0.37,-0.74 0.77,-1.49 1.14,-2.23c1.4,-2.66 2.85,-5.32 4.31,-7.93l0,-0.07c0.25,-0.45 0.5,-0.9 0.76,-1.34c1.18,-2.13 2.41,-4.24 3.67,-6.33c0.58,-1 1.15,-1.94 1.74,-2.89c0.13,-0.23 0.26,-0.45 0.41,-0.68c0.6,-1 1.21,-2 1.83,-3q4.63,-7.39 9.63,-14.55c0.29,-0.41 0.56,-0.81 0.85,-1.21c0.52,-0.74 1,-1.47 1.58,-2.2c1.38,-1.93 2.8,-3.87 4.23,-5.78c1,-1.35 2,-2.7 3.08,-4c2.6,-3.36 5.27,-6.7 8,-10s5.61,-6.62 8.52,-9.87c0.4,-0.45 0.8,-0.89 1.22,-1.34l4.27,-4.65l0,0c0.21,-0.22 0.39,-0.42 0.59,-0.62l0,0c0.51,-0.55 1,-1.1 1.55,-1.64c2.29,-2.42 4.64,-4.81 7,-7.17a381.2,381.2 0 0 1 38.44,-33.4c0.53,-0.42 1.07,-0.82 1.6,-1.22c2.54,-1.92 5.12,-3.81 7.7,-5.67a406.84,406.84 0 0 1 44.41,-27.7c1.06,-0.6 2.14,-1.17 3.23,-1.74a426.26,426.26 0 0 1 42.49,-19.56q11.86,-4.69 24.14,-8.76c5.42,-1.77 10.86,-3.46 16.37,-5q12.78,-3.67 25.88,-6.62a463.35,463.35 0 0 1 78.24,-10.66q12,-0.63 24.27,-0.63a465,465 0 0 1 117,14.8a4.22,4.22 0 0 0 3.63,1.89l3.36,0c1.46,0.39 2.91,0.8 4.37,1.22q12.23,3.53 24.11,7.69l2,0.72a430.4,430.4 0 0 1 56.91,25a412.06,412.06 0 0 1 47.65,29.44q3.51,2.52 6.92,5.09q4.14,-2.67 8.42,-5.09a165.59,165.59 0 0 1 34.88,-14.86a159.1,159.1 0 0 1 78.24,-3.06c33.25,7.05 63.35,24.55 87.66,49.44a204.55,204.55 0 0 1 26.32,33.28c0.55,0.86 1.1,1.73 1.63,2.61a220,220 0 0 1 16.74,33.39c0.17,0.42 0.34,0.83 0.49,1.25a231.09,231.09 0 0 1 10.3,33.35c0.12,0.57 0.26,1.15 0.38,1.73a240.11,240.11 0 0 1 4.92,33.37c0,0.4 0,0.81 0.08,1.22q0.63,8.71 0.64,17.61c0,5.3 -0.18,10.56 -0.51,15.77c0,0.57 -0.08,1.17 -0.13,1.75c-0.09,1.52 -0.22,3 -0.35,4.53a189.7,189.7 0 0 1 21.38,20.16q4.37,4.77 8.46,9.91a210.16,210.16 0 0 1 21.8,33.37c16.88,31.98 26.6,69.52 26.6,109.71z"/>
  <path id="svg_2" opacity="0.1" fill="#6c63ff" d="m1064.82,662.14c0,22.73 -23.56,44 -64.67,62.32l-776.56,0c-35.93,0 -69.58,-13 -98.42,-35.67c-7.25,-8.6 -11.07,-17.51 -11.07,-26.66c0,-24.16 26.64,-46.71 72.7,-65.77l0,0l1.3,-0.52c13,-5.33 27.53,-10.36 43.41,-15.09c0.4,-0.12 0.81,-0.23 1.21,-0.37l0,0q18.9,-5.55 40.21,-10.52c0.45,-0.1 0.89,-0.21 1.34,-0.29c5.48,-1.3 11.07,-2.51 16.78,-3.72l0,0l2.2,-0.46c41.55,-8.62 88.78,-15.46 140,-20.1l0.06,0q10.76,-1 21.75,-1.79c8.15,-0.65 16.4,-1.2 24.74,-1.71c6.37,-0.41 12.82,-0.76 19.29,-1.08a0.19,0.19 0 0 1 0.15,0c29.19,-1.47 59.35,-2.24 90.19,-2.24c76.26,0 148.34,4.68 212.21,13a0.52,0.52 0 0 1 0.18,0c9.82,1.28 19.46,2.63 28.86,4.07c2.69,0.42 5.37,0.84 8,1.27q15.91,2.57 31,5.43l0,0c118.3,22.49 195.14,58.88 195.14,99.9z"/>
  <path id="svg_3" fill="#6c63ff" d="m871.5,243.28s-10.58,-4.29 -44.24,11.14s-37.86,13.48 -46.57,11.16s-13.57,-2.92 -22.91,-15.81c0,0 -6.59,-35.71 -13,-41.25s-33.47,3.16 -33.47,3.16s-32.49,7.45 -38.68,-36c0,0 4.39,-32.72 -1.59,-42.76c0,0 12.08,5.2 32,-3.2s35.87,9.05 35.87,9.05s5,13 4.5,20.76s2.66,10.67 12.16,6.92c0,0 4.67,-6.64 -1.94,-17.62s-11.33,-19.15 -9.49,-27.67s7.15,-20.35 24.2,-26.26s40.2,-7 51.31,-11.67s13.85,-7.65 13.85,-7.65s-6.84,6.85 9.27,35.9s5.84,41.65 5.84,41.65s-8.57,20.43 -46.41,18.77c0,0 -36.46,1.33 -16.58,16.79c0,0 12.73,-2.59 31.76,-8.64s32.77,18.92 36.18,36.29s17.94,26.94 17.94,26.94z"/>
  <path id="svg_4" fill="#444053" d="m822.49,97.58l0.2,-0.06c1.46,5.54 -14.83,27.82 -28.76,45.53l-0.16,-0.13c19.64,-24.94 29.85,-41.05 28.72,-45.34z"/>
  <path id="svg_5" fill="#444053" d="m794.05,142.58l0.09,0.22c-11.13,14.14 -25.12,31 -36.32,43.53c-1.07,1.19 -2.13,2.44 -3.15,3.72l-0.32,-0.26c1,-1.28 2.09,-2.54 3.16,-3.73c11.19,-12.48 25.4,-29.33 36.54,-43.48z"/>
  <path id="svg_6" fill="#444053" d="m754.62,189.47l0.22,0.38c-20.38,25.45 -21.73,65 -21.78,65.31l-4.3,-5c0.05,-0.32 5.34,-35.06 25.86,-60.69z"/>
  <path id="svg_7" stroke-miterlimit="10" stroke="#444053" fill="none" d="m847.91,229.48s-24,-12.5 -42.76,-8s-60.95,-15.9 -60.95,-15.9s-17.9,-7.27 -21.5,-15.56c0,0 -12.29,-13 -13,-19.71s-12.66,-23.62 -20.46,-24.27"/>
  <path id="svg_8" stroke-miterlimit="10" stroke="#444053" fill="none" d="m844.38,241.51s-12.1,-8.16 -10.69,-17.66"/>
  <path id="svg_9" stroke-miterlimit="10" stroke="#444053" fill="none" d="m825.82,252.04s-17.31,-6.28 -19,-30.92"/>
  <path id="svg_10" stroke-miterlimit="10" stroke="#444053" fill="none" d="m797.91,258.42s-16.54,-13.72 -11.05,-37.7"/>
  <path id="svg_11" stroke-miterlimit="10" stroke="#444053" fill="none" d="m764.32,251.72s-11,-23.1 -1.21,-38.13"/>
  <path id="svg_12" stroke-miterlimit="10" stroke="#444053" fill="none" d="m848.14,214.25s-12.51,4 -9.83,10.56"/>
  <path id="svg_13" stroke-miterlimit="10" stroke="#444053" fill="none" d="m833.04,191.58s-16.75,5.31 -17.14,29"/>
  <path id="svg_14" stroke-miterlimit="10" stroke="#444053" fill="none" d="m809.68,186.06s-15.25,18.82 -14.13,35.92"/>
  <path id="svg_15" stroke-miterlimit="10" stroke="#444053" fill="none" d="m782.98,193.44s-15.14,14.48 -13.21,22.53"/>
  <path id="svg_16" stroke-miterlimit="10" stroke="#444053" fill="none" d="m773.85,188.33s-14.2,2.54 -16.19,-2.12"/>
  <path id="svg_17" stroke-miterlimit="10" stroke="#444053" fill="none" d="m755.4,171.19s7.17,9.5 9,7.37"/>
  <path id="svg_18" stroke-miterlimit="10" stroke="#444053" fill="none" d="m826.52,165.18s-35.8,2.6 -43.9,-8.2"/>
  <path id="svg_19" stroke-miterlimit="10" stroke="#444053" fill="none" d="m747.91,123.31s16.79,36.05 29,40.64"/>
  <path id="svg_20" stroke-miterlimit="10" stroke="#444053" fill="none" d="m765.49,106.14s10.31,33.16 23.09,43.51"/>
  <path id="svg_21" stroke-width="0.75" stroke-miterlimit="10" stroke="#444053" fill="none" d="m841.58,137.81s-27.22,11.68 -43.56,-0.14"/>
  <path id="svg_22" stroke-width="0.75" stroke-miterlimit="10" stroke="#444053" fill="none" d="m789.73,99.07s6.22,24.37 14.6,30.26"/>
  <path id="svg_23" stroke-width="0.75" stroke-miterlimit="10" stroke="#444053" fill="none" d="m837.47,110.5s-15.3,5.8 -21,1.36"/>
  <path id="svg_24" stroke-miterlimit="10" stroke="#444053" fill="none" d="m742.29,179.15s0,21.25 -5.78,22.76"/>
  <path id="svg_25" stroke-miterlimit="10" stroke="#444053" fill="none" d="m695,206.68s23,2 33.57,-9.89"/>
  <path id="svg_26" stroke-miterlimit="10" stroke="#444053" fill="none" d="m736.37,154.05s-5.56,21.55 -20.9,27.36"/>
  <path id="svg_27" stroke-miterlimit="10" stroke="#444053" fill="none" d="m681.22,183.98s16.26,5.65 30.25,-8.74"/>
  <path id="svg_28" stroke-miterlimit="10" stroke="#444053" fill="none" d="m718.28,135.52s-1.53,18.3 -11.48,26.87"/>
  <path id="svg_29" stroke-miterlimit="10" stroke="#444053" fill="none" d="m681.84,156.09s13.49,0.09 16.65,-4.31"/>
  <rect id="svg_30" fill="#33323d" height="193.94" width="384.2" y="225.58" x="395.21"/>
  <rect id="svg_31" fill="#33323d" height="127.66" width="624.78" y="478.44" x="275.53"/>
  <polygon id="svg_32" fill="#fff" points="424.67 510.35 745.04 510.35 808.87 725.16 357.16 725.16 424.67 510.35"/>
  <polygon id="svg_33" fill="#504f60" points="257.73 402.33 257.73 468.62 257.73 482.58 257.73 606.09 377.41 606.09 377.41 488.26 798.43 488.26 798.43 606.09 918.11 606.09 918.11 482.58 918.11 468.62 918.11 402.33 257.73 402.33"/>
  <rect id="svg_34" opacity="0.1" fill="#33323d" height="66.28" width="660.38" y="402.33" x="257.73"/>
  <circle id="svg_35" opacity="0.8" fill="#ff00ff" r="9.82" cy="435.48" cx="896.52"/>
  <circle id="svg_36" opacity="0.8" fill="#00ffff" r="9.82" cy="435.48" cx="848.33"/>
  <rect id="svg_37" fill="#fff" height="211.12" width="355.97" y="178.93" x="409.33"/>
  <path id="svg_38" fill="#fbbebe" d="m819.45,487.07c0.75,8.17 -5.42,16.1 -3.62,24.1c0.38,1.71 1.12,3.33 1.39,5c0.74,4.75 -2.09,9.25 -4.8,13.23l-23.23,34.18a21.22,21.22 0 0 1 -3.32,4.1c-4.45,4 -11.11,3.54 -16.94,4.72a29.08,29.08 0 0 0 -11.35,5a0.74,0.74 0 0 0 -0.15,1a9.77,9.77 0 0 0 8.44,4c0.61,0.8 0,2 -0.84,2.56c-1.25,0.86 -3,1.09 -3.21,3.21a3.52,3.52 0 0 0 0.42,2.13a6.61,6.61 0 0 0 4.07,2.82c8,2.46 16.73,-1.86 22.75,-7.74s10.34,-13.3 16.25,-19.29c3.27,-3.31 7,-6.15 10.36,-9.36c6.72,-6.4 12,-14.19 17,-22a24.2,24.2 0 0 0 3.68,-7.49c0.62,-2.66 0.34,-5.47 1.06,-8.11c0.94,-3.45 3.47,-6.2 5.57,-9.1c4.13,-5.68 6.88,-12.62 6.33,-19.62s-4.87,-13.89 -11.47,-16.27a10.29,10.29 0 0 0 -6.43,-0.39c-2.71,0.83 -4.7,3.07 -6.55,5.21l-4.41,5.09a12.29,12.29 0 0 0 -2.57,3.91a4.07,4.07 0 0 0 0.91,4.34"/>
  <path id="svg_39" opacity="0.05" d="m819.45,487.07c0.75,8.17 -5.42,16.1 -3.62,24.1c0.38,1.71 1.12,3.33 1.39,5c0.74,4.75 -2.09,9.25 -4.8,13.23l-23.23,34.18a21.22,21.22 0 0 1 -3.32,4.1c-4.45,4 -11.11,3.54 -16.94,4.72a29.08,29.08 0 0 0 -11.35,5a0.74,0.74 0 0 0 -0.15,1a9.77,9.77 0 0 0 8.44,4c0.61,0.8 0,2 -0.84,2.56c-1.25,0.86 -3,1.09 -3.21,3.21a3.52,3.52 0 0 0 0.42,2.13a6.61,6.61 0 0 0 4.07,2.82c8,2.46 16.73,-1.86 22.75,-7.74s10.34,-13.3 16.25,-19.29c3.27,-3.31 7,-6.15 10.36,-9.36c6.72,-6.4 12,-14.19 17,-22a24.2,24.2 0 0 0 3.68,-7.49c0.62,-2.66 0.34,-5.47 1.06,-8.11c0.94,-3.45 3.47,-6.2 5.57,-9.1c4.13,-5.68 6.88,-12.62 6.33,-19.62s-4.87,-13.89 -11.47,-16.27a10.29,10.29 0 0 0 -6.43,-0.39c-2.71,0.83 -4.7,3.07 -6.55,5.21l-4.41,5.09a12.29,12.29 0 0 0 -2.57,3.91a4.07,4.07 0 0 0 0.91,4.34"/>
  <path id="svg_40" fill="#3f3d56" d="m837.04,697.36c-5.08,3.09 -11.4,3.29 -17.3,2.56c-1,-0.11 -2.07,-0.18 -2.68,0.55c-0.88,1.07 0.16,2.63 1.23,3.49a25.74,25.74 0 0 0 11.89,4.89a80.44,80.44 0 0 0 11.62,0.77c10.6,0.18 21.26,0.36 31.76,-1.17a4.29,4.29 0 0 0 1.73,-0.51a3.21,3.21 0 0 0 1.31,-2c0.73,-2.72 -0.66,-5.66 -2.75,-7.55s-4.78,-2.95 -7.41,-4l-9.22,-3.59c-2.17,-0.85 -5.64,-3.08 -8,-2.91c-4.31,0.35 -8.52,7.33 -12.18,9.47z"/>
  <path id="svg_41" opacity="0.05" d="m837.04,697.36c-5.08,3.09 -11.4,3.29 -17.3,2.56c-1,-0.11 -2.07,-0.18 -2.68,0.55c-0.88,1.07 0.16,2.63 1.23,3.49a25.74,25.74 0 0 0 11.89,4.89a80.44,80.44 0 0 0 11.62,0.77c10.6,0.18 21.26,0.36 31.76,-1.17a4.29,4.29 0 0 0 1.73,-0.51a3.21,3.21 0 0 0 1.31,-2c0.73,-2.72 -0.66,-5.66 -2.75,-7.55s-4.78,-2.95 -7.41,-4l-9.22,-3.59c-2.17,-0.85 -5.64,-3.08 -8,-2.91c-4.31,0.35 -8.52,7.33 -12.18,9.47z"/>
  <path id="svg_42" fill="#464353" d="m843.47,574.91c-3.83,5.11 -7.81,11 -6.86,17.33c0.51,3.41 2.42,6.42 3.82,9.57a67.41,67.41 0 0 1 3.87,13.44c1.44,6.69 2.88,13.4 3.76,20.19c1,7.67 -3.7,29.86 -4.14,37.59c-0.11,1.86 -0.32,3.88 -1.62,5.22c-0.51,0.53 -1.19,1 -1.41,1.65a2.77,2.77 0 0 0 0.3,1.94c2.17,4.89 6.6,8.52 11.52,10.6s16.89,5.65 22.23,5.84a4.21,4.21 0 0 0 2.09,-0.28a4,4 0 0 0 1.62,-1.85c3.86,-7.37 0.15,-33.61 0.21,-41.94c0,-7 1.69,-13.84 1.39,-20.78c-0.25,-5.57 -1.74,-11 -2.28,-16.56c-0.89,-9.11 0.78,-18.25 2.46,-27.25c1.28,-6.89 2.56,-13.79 4.2,-20.61c1,-4.15 2.16,-8.35 4.45,-12c1.81,-2.87 4.27,-5.26 6.34,-8a36,36 0 0 0 7.09,-26.38c-0.12,-0.92 -13.32,3.35 -14.47,3.85a45.31,45.31 0 0 0 -12.89,8.3c-3,2.9 -5.45,6.79 -8.13,10.05q-5.67,6.9 -11.19,13.91q-6.27,8.05 -12.36,16.17z"/>
  <path id="svg_43" opacity="0.05" d="m843.47,574.58c-3.83,5.11 -7.81,11 -6.86,17.34c0.51,3.4 2.42,6.41 3.82,9.56a67.6,67.6 0 0 1 3.87,13.44c1.44,6.69 2.88,13.4 3.76,20.19c1,7.67 -3.7,29.87 -4.14,37.6c-0.11,1.85 -0.32,3.88 -1.62,5.21c-0.51,0.53 -1.19,1 -1.41,1.65a2.81,2.81 0 0 0 0.3,2c2.17,4.88 6.6,8.52 11.52,10.59s16.89,4 22.23,4.17a4.21,4.21 0 0 0 2.09,-0.28a4,4 0 0 0 1.62,-1.85c3.86,-7.37 0.15,-31.94 0.21,-40.26c0,-7 1.69,-13.85 1.39,-20.79c-0.25,-5.57 -1.74,-11 -2.28,-16.56c-0.89,-9.11 0.78,-18.25 2.46,-27.24c1.28,-6.9 2.56,-13.8 4.2,-20.62c1,-4.15 2.16,-8.35 4.45,-12c1.81,-2.86 4.27,-5.26 6.34,-7.94a36.07,36.07 0 0 0 7.09,-26.38c-0.12,-0.93 -13.32,3.34 -14.47,3.85a45.06,45.06 0 0 0 -12.89,8.32c-3,2.91 -5.45,6.79 -8.13,10q-5.67,6.9 -11.19,13.92q-6.27,8 -12.36,16.08z"/>
  <circle id="svg_44" fill="#fbbebe" r="21.53" cy="440.87" cx="800.78"/>
  <path id="svg_45" fill="#fbbebe" d="m820.16,439.97a27.94,27.94 0 0 0 17.87,12.5l-1.62,5.87c-2.8,10.13 -6,20.84 -13.77,27.86c0.85,-3.43 -0.25,-7.12 -2.19,-10.07a38.61,38.61 0 0 0 -7.31,-7.64l-12.39,-10.78a3.7,3.7 0 0 1 -0.93,-1a3.21,3.21 0 0 1 0,-2.36c1.58,-4.91 6.09,-8 9.74,-11.3a34.62,34.62 0 0 0 4.9,-5.71c2.54,-3.53 4.07,0 5.7,2.63z"/>
  <path id="svg_46" fill="#464353" d="m772.41,419.23l-0.48,-4c3.4,0.88 6.62,-2 8.79,-5s4.19,-6.52 7.5,-7.76c4,-1.52 8.28,0.91 12.12,2.91a38.39,38.39 0 0 0 13.92,4.55a9,9 0 0 1 2.3,0.38c2.5,0.89 3.69,4 4.05,6.87s0.26,5.87 1.5,8.41c0.93,1.92 2.54,3.35 3.52,5.24c2.63,5.1 0.09,12.06 2.87,17.06l-6.9,-6.33c-0.64,-0.58 -1.53,-1.18 -2.22,-0.69s-0.59,1.23 -0.82,1.9c-0.67,2 -3.12,2.56 -4.91,1.79s-3.08,-2.47 -4.39,-4c-3.05,-3.6 -6.68,-6.76 -11,-8.3a14.06,14.06 0 0 0 -11.59,0.69c-3.22,1.82 -5.58,6.06 -9.52,6.21c-5.41,0.2 -7.66,-9.87 -10.17,-13.85a4.9,4.9 0 0 0 1.42,-6.11c0.44,-0.17 3.94,-0.62 4.01,0.03z"/>
  <path id="svg_47" fill="#3f3d56" d="m862.15,697.19a22.76,22.76 0 0 1 -15.48,5.77c-1.45,0 -3.46,0.28 -3.47,1.73a2.32,2.32 0 0 0 0.42,1.2a14.23,14.23 0 0 0 8,6.26c3.1,0.94 6.42,0.78 9.66,0.62l9.45,-0.49c1.78,-0.1 3.57,-0.19 5.35,-0.41s3.7,-0.59 5.56,-0.86a72.75,72.75 0 0 1 13.76,-0.65c1.22,0.05 2.63,0 3.39,-0.92s0.35,-2.58 0.07,-3.91c-0.56,-2.74 0,-5.61 -0.52,-8.36c-0.91,-4.83 -5.06,-8.52 -9.64,-10.27c-4.25,-1.62 -11.79,-3.47 -15.82,-0.78c-4.32,2.9 -6.92,7.62 -10.73,11.07z"/>
  <path id="svg_48" fill="#464353" d="m871.51,535.58c0.84,4 4.67,7 4.79,11c0.09,3.24 -2.23,6 -3.89,8.75a58,58 0 0 0 -4,9a137.6,137.6 0 0 1 -11.68,23.15c-2.22,3.51 -4.7,7.33 -4.19,11.46a17.17,17.17 0 0 0 2,5.48l6.65,13.21a38,38 0 0 1 3.4,8.35c0.57,2.51 0.63,5.11 1,7.67c1.05,8.1 4.85,16.26 2.61,24.11c-0.2,0.68 -0.9,1.5 -1.43,1c2.19,4.1 4,8.24 3.79,12.89c-0.09,2.44 -0.84,5 0.07,7.26a7.89,7.89 0 0 1 1,2.86c0,0.66 -0.31,1.29 -0.38,2c-0.18,1.87 1.53,3.43 3.32,4s3.72,0.55 5.52,1.09c3.47,1 5.93,4 8.9,6.08a18.71,18.71 0 0 0 10.22,3.33a2.56,2.56 0 0 0 1.5,-0.3a2.44,2.44 0 0 0 0.84,-1.83a10.14,10.14 0 0 0 -3.66,-8.81a4.07,4.07 0 0 1 -1.35,-1.42a3.4,3.4 0 0 1 -0.13,-1.59a118.71,118.71 0 0 0 -0.39,-21.82a33,33 0 0 1 -0.35,-6.94c0.2,-1.93 0.78,-3.85 0.56,-5.78s-1.19,-3.67 -1.77,-5.53c-1,-3.3 -0.74,-6.84 -0.85,-10.3c-0.18,-6 -1.55,-11.88 -2.92,-17.72c-0.53,-2.29 -1.13,-4.7 -2.76,-6.4c-1.38,-1.44 -3.61,-2.83 -3.09,-4.75a5.5,5.5 0 0 1 1.26,-1.89a7.59,7.59 0 0 0 1.59,-5.79a2.58,2.58 0 0 0 3,-1.4c10.81,-5.09 19.55,-15.29 23.4,-26.61a8.84,8.84 0 0 1 1,-2.37c1,-1.4 2.74,-2 4.28,-2.78c4.84,-2.43 8.19,-7 11.26,-11.47c1.79,-2.6 3.57,-5.28 4.34,-8.33a27.33,27.33 0 0 0 0.6,-6l0.27,-10.42a5.61,5.61 0 0 0 -0.2,-2a4.83,4.83 0 0 0 -1.12,-1.65a20.07,20.07 0 0 0 -11,-6c-2.84,-0.51 -5.74,-0.41 -8.61,-0.65c-5.57,-0.46 -11.07,-2.18 -16.64,-1.78c-8.76,0.64 -16.55,6.71 -20.68,14.46c-1.45,2.77 -2.97,5.18 -6.08,5.18z"/>
  <path id="svg_49" fill="#6c63ff" d="m822.91,467.82a11.43,11.43 0 0 1 -0.63,4.74c-0.68,1.46 -2.4,2.59 -3.89,2c0.45,-1 -0.75,-2.19 -1.86,-2.06a3.46,3.46 0 0 0 -2.46,2.09a7.76,7.76 0 0 0 -0.71,4.81c0.35,2 1.53,4 1.22,6c-0.25,1.7 -1.5,3.4 -0.83,5a8.1,8.1 0 0 0 1.6,1.92a5.42,5.42 0 0 1 -0.57,7.45l16.78,0.33c-0.61,2.81 0.64,5.68 2.08,8.17a51.46,51.46 0 0 0 38.35,25a3.35,3.35 0 0 0 -0.8,5.11c1.36,1.35 3.67,1.18 5.38,0.3s3.06,-2.33 4.62,-3.45a14.11,14.11 0 0 1 9.48,-2.56c2.1,0.2 4.14,0.88 6.25,1c6.22,0.33 11.56,-4.14 17.51,-6c4.36,-1.34 9.29,-1.34 13,-4.06c1.58,-1.17 2.87,-3.09 2.41,-5a8.29,8.29 0 0 0 -1.81,-2.94c-2.11,-2.72 -3.35,-6 -4.85,-9.09a54.48,54.48 0 0 0 -12.13,-16.24a108.92,108.92 0 0 0 -12,-9.13a21.13,21.13 0 0 0 -3.26,-2a34.11,34.11 0 0 1 -4.46,-1.81c-2,-1.24 -3.11,-3.43 -4.62,-5.2c-3.33,-3.88 -8.44,-5.67 -12.54,-8.72c-2.75,-2 -5.17,-4.74 -8.46,-5.73c-1.59,-0.48 -3.29,-0.52 -4.89,-1c-3.62,-1.1 -6.26,-4.32 -9.82,-5.62c-2.82,-1 -5.92,-0.76 -8.9,-1.13a20.56,20.56 0 0 1 -9.13,-3.47a11,11 0 0 0 -3,-1.72c-4.49,-1.37 -4.86,7 -5.28,9.91c-0.67,4.45 -1.78,8.73 -1.78,13.1z"/>
  <path id="svg_50" fill="#fbbebe" d="m827.29,495.92c0.75,8.17 -5.42,16.09 -3.62,24.1c0.38,1.71 1.12,3.33 1.39,5c0.75,4.75 -2.09,9.25 -4.8,13.22l-23.23,34.1a21.22,21.22 0 0 1 -3.32,4.1c-4.45,4 -11.11,3.54 -16.94,4.72a29.15,29.15 0 0 0 -11.35,5a0.74,0.74 0 0 0 -0.15,1a9.74,9.74 0 0 0 8.44,4c0.61,0.81 0,2 -0.84,2.56c-1.25,0.87 -3,1.1 -3.21,3.22a3.52,3.52 0 0 0 0.42,2.13a6.65,6.65 0 0 0 4.07,2.82c8,2.46 16.73,-1.86 22.75,-7.74s10.34,-13.3 16.26,-19.29c3.27,-3.31 7,-6.15 10.35,-9.36c6.73,-6.4 11.95,-14.19 17,-22a24.31,24.31 0 0 0 3.68,-7.49c0.62,-2.66 0.34,-5.47 1.06,-8.11c0.94,-3.45 3.47,-6.21 5.57,-9.1c4.13,-5.68 6.88,-12.62 6.33,-19.62s-4.87,-13.89 -11.47,-16.27a10.22,10.22 0 0 0 -6.43,-0.39c-2.7,0.83 -4.7,3.07 -6.55,5.21l-4.41,5.09a12.09,12.09 0 0 0 -2.56,3.91a4.05,4.05 0 0 0 0.9,4.33"/>
  <path id="svg_51" fill="#6c63ff" d="m839.05,462.35c-3.06,0.18 -6.42,0.48 -8.58,2.66a12.33,12.33 0 0 0 -2.16,3.38c-2.09,4.27 -4.13,8.73 -4.28,13.48c-0.13,3.8 1,7.51 1.55,11.27c0.48,3.12 -0.74,6.3 -1,9.46c3.79,-1.16 8.79,-2.74 12.23,-4.7a40.48,40.48 0 0 1 7.15,-3.72c3.65,-1.21 9.78,0.87 13.22,2.58c0.19,-2.44 -1.63,-6.67 -1.44,-9.11a10.31,10.31 0 0 1 0.54,-3a18.44,18.44 0 0 1 1.83,-2.91a11.92,11.92 0 0 0 -1.07,-14c-3.07,-3.46 -7.89,-4.76 -12.48,-5.29a54.12,54.12 0 0 0 -8.72,-0.31"/>
  <path id="svg_52" fill="url(#a17f7adb-619f-4eca-9f9e-ffa615402df6)" d="m386,392.39l-19.72,-28.6s-0.37,-7.08 -1.66,-8.73s-0.28,-5.33 -0.28,-5.33s1.39,-2 0.19,-2.21s-0.19,-4.69 -0.19,-4.69l-0.09,-7.17s1.11,-6.9 0.19,-8.55a2.71,2.71 0 0 1 0.09,-2.95s1.1,-3.95 0,-5s-0.83,-7.17 -0.56,-12.05s-1.93,-7.63 -1.93,-8.36s-7.28,-7.91 -7.28,-8.56s-4.61,-3.31 -7.38,-4s-4.14,-1.29 -4.05,-1.66s-4.33,-1.83 -4.33,-1.83s-3.87,-0.28 -5.35,-2.21s-6,-2.49 -6.11,-2.51l-0.09,-0.38c0,-0.14 -0.05,-0.28 -0.08,-0.42a19.34,19.34 0 0 0 1,-1.8l0.26,-0.56a7.82,7.82 0 0 0 4.53,-1.41a6.13,6.13 0 0 0 2.21,-4.41a9.64,9.64 0 0 0 -1.08,-4.9c-0.81,-1.65 -2,-3.37 -1.58,-5.17c0.18,-0.77 0.64,-1.45 0.88,-2.21a5.84,5.84 0 0 0 -0.66,-4.36c-0.7,-1.33 -1.67,-2.51 -2.45,-3.8a15,15 0 0 1 -1.95,-5.38a8.29,8.29 0 0 0 -0.71,-2.93a5.47,5.47 0 0 0 -1.62,-1.63a16.18,16.18 0 0 0 -9.91,-3c-2.51,0.08 -5,0.76 -7.5,0.45a26.87,26.87 0 0 1 -4.38,-1.14c-3.09,-0.92 -6.66,-1.29 -9.35,0.48s-3.76,5.25 -5.59,8c-1.61,2.4 -4,4.42 -5.2,7c0,0 0,-0.1 0,-0.14a8.38,8.38 0 0 0 -0.69,1.85a13.18,13.18 0 0 0 0.41,6.1a4.24,4.24 0 0 0 1.49,2.72c0.91,0.59 2.16,0.45 3.22,0.64l-0.12,0.52a21.05,21.05 0 0 0 14.61,24.48c0,0.19 0,0.37 0,0.56a13.4,13.4 0 0 1 -0.1,1.58l0,0s-9.27,-1.91 -11.76,-0.62s-7.37,2.3 -8.11,3s-2.58,0.19 -4.24,4.51s-1.84,8.73 -4,10.76s-3.22,3.4 -3.32,4.87s0.28,1.84 -0.55,2.3s-2,2.39 -1.66,3.13a2.61,2.61 0 0 1 -1,2.75a3.06,3.06 0 0 0 -1.29,2.76s-0.56,2 -1.85,2.49s-2.12,3.49 -2.12,3.49l-4.18,4.8l-8.28,-9.16a3.5,3.5 0 0 0 -4.93,-0.25l-4.07,3.66a8.06,8.06 0 0 0 -4.07,2.42a10.84,10.84 0 0 0 -2.11,3.14l-2.22,2a5.67,5.67 0 0 0 -0.58,6.25l5.31,5.87l0,0.05a9.4,9.4 0 0 0 -5.13,2.09c-7.92,7 -8,13.43 -6.82,16.37s11.24,14.25 11.24,14.25s5.84,7.59 14.27,11.62l0,0l-0.06,0.07a6.94,6.94 0 0 0 -0.49,0.57l-0.14,0.18l-0.13,0.18l-0.15,0.22a1.74,1.74 0 0 0 -0.11,0.18l-0.16,0.26a1.62,1.62 0 0 0 -0.1,0.18c-0.07,0.12 -0.13,0.24 -0.19,0.36a1.34,1.34 0 0 0 -0.06,0.12c-0.08,0.16 -0.16,0.32 -0.23,0.5l-0.08,0.18c-0.05,0.12 -0.09,0.24 -0.14,0.37a2.25,2.25 0 0 0 -0.08,0.24l-0.12,0.36a2,2 0 0 0 -0.08,0.26c0,0.13 -0.08,0.26 -0.11,0.4s-0.05,0.16 -0.07,0.25s-0.1,0.43 -0.14,0.66c0,0.08 0,0.17 -0.05,0.26s-0.05,0.31 -0.08,0.47s0,0.22 0,0.34l-0.06,0.45l0,0.36c0,0.17 0,0.34 -0.05,0.52s0,0.21 0,0.32c0,0.29 0,0.58 0,0.89c-0.18,10.76 0.45,12.32 0.45,12.32a6,6 0 0 0 4.89,3.67a6.1,6.1 0 0 0 1.57,-0.08c4.8,-0.83 16,-2.76 20,-2c2.39,0.44 6.8,-0.22 9.94,-0.81l0.83,-0.16l0.57,1.83l1.82,-0.5l1.55,0.89l1,0.57c1.82,6.16 9.2,4.06 9.2,4.06l1.75,1l17.79,0.46a35.7,35.7 0 0 0 6.3,3a4.84,4.84 0 0 0 0.89,0.2a39.57,39.57 0 0 0 5,0.09c1.36,0 2.41,-0.09 2.41,-0.09s-0.18,-4.83 -0.44,-10.24a145.13,145.13 0 0 0 16.48,-1.35c9.5,-1.66 13.46,-10.3 14.92,-14.92a43.61,43.61 0 0 1 0.93,5.73a41.57,41.57 0 0 0 1.48,5a16.67,16.67 0 0 0 2,3.68c7,-2.39 2.76,-6 1.29,-7.54s1,-2.85 1,-2.85s1.94,-1.29 1.75,-2.48s-0.28,-2.48 6,-2.39s5.89,-5.12 5.89,-5.12zm-97.32,-58.71c0.08,0.52 1,6.19 1.74,7.68a10,10 0 0 1 0.21,3c-3.71,-0.3 -7.58,-0.46 -7.58,-0.46a0.94,0.94 0 0 1 0.2,0.47l-0.59,-0.13l-0.84,-0.2l6.84,-10.41l0.02,0.05zm-13.56,21.56l6.43,1l0.54,0.08a21,21 0 0 0 -0.33,3c0,0.1 0.14,0.21 0.35,0.34a7.91,7.91 0 0 0 -0.12,1.53c0.1,0.5 3.1,1.6 6.55,2.51c-0.05,0.19 -0.09,0.37 -0.14,0.53l0,0c-3.05,-1.6 -7.84,-2.35 -8.39,-3.54s-16.87,-6.89 -16.87,-6.89l-1.62,-0.81l4.29,0.81l1.18,-0.12a63.73,63.73 0 0 0 8.13,1.56z"/>
  <path id="svg_53" fill="#65617d" d="m365.02,396.39s-2.55,15.44 -15.52,17.72s-56.27,1.83 -56.27,1.83s-24.76,-3.57 -33.71,-24.48s-14.71,-29.24 -7,-29.6s49.06,14 51.43,14.16s63.36,-31.79 61.07,20.37z"/>
  <path id="svg_54" opacity="0.05" d="m365.02,396.39s-2.55,15.44 -15.52,17.72s-56.27,1.83 -56.27,1.83s-24.76,-3.57 -33.71,-24.48s-14.71,-29.24 -7,-29.6s49.06,14 51.43,14.16s63.36,-31.79 61.07,20.37z"/>
  <path id="svg_55" fill="#3f3d56" d="m248.91,413.58a5.91,5.91 0 0 0 4.84,3.65a6.62,6.62 0 0 0 1.57,-0.09c4.75,-0.82 15.89,-2.74 19.82,-2c2.36,0.43 6.73,-0.22 9.84,-0.8c2.07,-0.39 3.59,-0.76 3.59,-0.76s-3.66,-12.15 -4.11,-12.51s-16.45,-10 -16.45,-10l-12.66,-0.91l0,0a6.69,6.69 0 0 0 -4.3,2.52c-1.33,1.62 -2.48,4.27 -2.56,8.62c-0.21,10.71 0.42,12.28 0.42,12.28z"/>
  <path id="svg_56" opacity="0.05" d="m248.91,413.58a5.91,5.91 0 0 0 4.84,3.65a53.76,53.76 0 0 1 -3.44,-5l0.07,-8.86a15.64,15.64 0 0 1 5,-13.15l0,0s-6.67,0.45 -6.86,11.14s0.39,12.22 0.39,12.22z"/>
  <path id="svg_57" opacity="0.1" d="m303.82,394.2l11.79,-9.23l18.54,-18.27l-5,-0.23c-0.75,0.48 -2.85,2 -2.93,3.82c-0.09,2.23 -5,0.16 -7.57,1.43s-15.07,17.3 -17.26,17.19s-3.93,-1.11 -4.85,0.45l-0.06,0.1l7.34,4.74z"/>
  <path id="svg_58" opacity="0.1" d="m251.02,392.7c0.42,0.2 0.85,0.4 1.28,0.58c8.95,3.84 20,11.88 20.83,13.34c0.5,0.89 6.91,4.78 11.85,7.7c2.07,-0.39 3.59,-0.76 3.59,-0.76s-3.66,-12.15 -4.11,-12.51s-16.45,-10 -16.45,-10l-12.66,-0.91l0,0a6.69,6.69 0 0 0 -4.33,2.56z"/>
  <path id="svg_59" fill="#65617d" d="m226.18,366.52c1.18,2.92 11.14,14.16 11.14,14.16s6.3,8.22 15.26,12s20,11.88 20.82,13.34c0.53,0.94 7.67,5.24 12.69,8.19l1.13,0.66l2.49,1.45l1.32,0.75s3.06,-2.45 6.11,-4.92s6,-4.89 6,-5s1.28,-3.38 1,-3.56s-0.77,-1.36 -1.93,-2.83a12.88,12.88 0 0 0 -4.65,-3.84a13.25,13.25 0 0 1 -6,-6.29s-0.4,-0.29 -1,-0.68a12.38,12.38 0 0 0 -4.1,-1.83c-2,-0.25 -5.76,-4.36 -5.76,-4.36a11.18,11.18 0 0 1 -3.56,-3.74c-1,-2 -15.13,-11.74 -16.44,-12.64l34.34,22.06l8.22,5.28l11.79,-9.22l18.54,-18.27l-6.12,-0.28c-9,-0.39 -25,-1 -27,-0.54a15.69,15.69 0 0 1 -5,0.33s-4.56,0.2 -7.58,-1.39s-7.77,-2.34 -8.32,-3.52s-16.71,-6.84 -16.71,-6.84s-22,-11.69 -29.87,-4.75s-8,13.34 -6.81,16.28z"/>
  <path id="svg_60" fill="#ee8e9e" d="m297.15,299.47l2.83,9.41l3.66,21.19l13.43,0.91l3.84,-6.4l3.88,-6.44s2.42,-8.56 4.16,-16.84c1.53,-7.33 2.54,-14.45 0.87,-15.22c-1.49,-0.68 -2.46,-3.15 -3.1,-5.81c-0.08,-0.32 -0.15,-0.66 -0.21,-1a52.66,52.66 0 0 1 -0.9,-6.81s-28.13,-1.46 -24.2,10.14a18.51,18.51 0 0 1 1.06,6.17c0,0.54 0,1.07 -0.1,1.57a13.15,13.15 0 0 1 -5.22,9.13z"/>
  <path id="svg_61" fill="#e3e8f4" d="m291.31,297.92l1,16l2.28,13.61l2.56,6.31l2.29,34.48s22,2.55 27.38,-0.05a2.28,2.28 0 0 0 1,-0.75c6.47,-9.77 4.35,-38.07 4.35,-38.07l2.46,-18.27l-1.64,-9.48l-4,-0.42l-3.06,-0.33s-0.69,0.85 -1.69,2.17c-2.71,3.57 -7.69,10.61 -7.35,13.54c0.45,4 -0.55,8.13 -2.11,8.77s-2.83,1.74 -3.1,0.64a4.91,4.91 0 0 1 -0.28,-2.92c0.28,-1.56 -1.19,-6.31 -1.19,-6.31s-2.46,-5.57 -2.28,-7.94s-0.27,-5.12 -1,-5.76s-1.74,-1.28 -0.92,-4.2s-3.6,-8.61 -3.6,-8.61l-11.1,7.59z"/>
  <path id="svg_62" opacity="0.1" d="m320.4,337.84l0.92,27.31l5.27,2.93a2.37,2.37 0 0 0 1,-0.76c6.47,-9.77 4.35,-38.07 4.35,-38.07l2.47,-18.27l-1.65,-9.48l-4,-0.42c1.54,-7.33 2.54,-14.44 0.87,-15.22c-1.49,-0.68 -2.46,-3.15 -3.09,-5.8l0,0l-2.85,19.32s0.24,1.74 0.32,3.54a10,10 0 0 1 -0.23,3.4a11.35,11.35 0 0 0 -0.18,4.57c-1.65,2.9 -2.47,8.28 -2.87,13.47c-0.54,6.9 -0.33,13.48 -0.33,13.48z"/>
  <path id="svg_63" fill="#3f3d56" d="m326.62,279.58s4.61,0.57 6.07,2.49s5.3,2.2 5.3,2.2s4.38,1.46 4.29,1.82s1.28,0.92 4,1.65s7.31,3.38 7.31,4s7.21,7.76 7.21,8.49s2.19,3.47 1.92,8.31s-0.55,11 0.55,12s0,4.93 0,4.93a2.7,2.7 0 0 0 -0.09,2.93c0.91,1.64 -0.19,8.49 -0.19,8.49l0.1,7.13s-1,4.47 0.18,4.66s-0.18,2.19 -0.18,2.19s-1,3.65 0.27,5.3s1.64,8.67 1.64,8.67l19.55,28.41s0.28,5.21 -5.93,5.12s-6.13,1.19 -5.94,2.37s-1.74,2.47 -1.74,2.47s-2.46,1.28 -1,2.83s5.66,5.12 -1.28,7.49a16.54,16.54 0 0 1 -2,-3.65a41.46,41.46 0 0 1 -1.46,-4.93s-0.64,-6.95 -1.92,-7.86s-1.1,-5.3 -1.1,-5.3s1.83,-3.56 -0.73,-5s-39.64,-22 -39.64,-22l-0.9,-27.32s-0.64,-20.19 3.2,-26.95a11.35,11.35 0 0 1 0.18,-4.57c0.64,-1.64 -0.09,-6.94 -0.09,-6.94l2.42,-19.43z"/>
  <path id="svg_64" opacity="0.1" d="m302.68,290.58s-9.18,-1.89 -11.65,-0.61s-7.3,2.28 -8,3s-2.55,0.19 -4.2,4.48s-1.82,8.68 -3.93,10.69s-3.19,3.38 -3.28,4.84s0.27,1.83 -0.55,2.28s-2,2.38 -1.65,3.11s19,16.81 19,16.81s0.92,6.12 1.74,7.67s-0.91,22.93 -2.74,24.39s12.29,1.34 12.29,1.34s0.64,-14 1.19,-14.76s-0.37,-15.71 -0.37,-15.71s-0.09,-12.79 1.1,-16.17s1,-14.62 1,-14.62s1.05,-6.74 2.33,-8.31s-2.28,-8.43 -2.28,-8.43z"/>
  <path id="svg_65" fill="#3f3d56" d="m302.41,290.31s-9.18,-1.89 -11.65,-0.62s-7.31,2.29 -8,3s-2.56,0.18 -4.2,4.48s-1.83,8.67 -3.93,10.68s-3.2,3.38 -3.29,4.84s0.28,1.83 -0.55,2.29s-2,2.37 -1.64,3.1s19,16.81 19,16.81s0.91,6.12 1.74,7.67s-0.92,22.93 -2.75,24.39s12.34,1.33 12.34,1.33s0.64,-14 1.18,-14.75s-0.36,-15.72 -0.36,-15.72s-0.09,-12.78 1.1,-16.16s1.05,-14.62 1.05,-14.62s1.05,-6.74 2.33,-8.31s-2.37,-8.41 -2.37,-8.41z"/>
  <path id="svg_66" opacity="0.1" d="m301.45,282.58a18.51,18.51 0 0 1 1.06,6.17a21,21 0 0 0 24,-9.5a52.66,52.66 0 0 1 -0.9,-6.81s-28.09,-1.47 -24.16,10.14z"/>
  <path id="svg_67" fill="#ee8e9e" d="m287.56,268.14a20.93,20.93 0 1 0 0.46,-4.35a20.71,20.71 0 0 0 -0.46,4.35z"/>
  <path id="svg_68" fill="#3f3d56" d="m274.13,316.58l-5,1.55a2.59,2.59 0 0 1 -1,2.74a3,3 0 0 0 -1.27,2.74s-0.55,2 -1.83,2.47s-2.1,3.47 -2.1,3.47l-4.2,4.84s-1.56,1.28 -1.28,1.92s-1.65,0.82 -1.65,0.82l1,16.26l8.68,1.65l5.39,-0.55l4.38,-1.64l3.84,-2.29l1.73,-4.47l7.68,-11.7l-14.37,-17.81z"/>
  <path id="svg_69" fill="#ee8e9e" d="m257.05,338.38s-11.14,-16.07 -19.46,-7.4s3.38,22.75 6.12,22.29s15.81,-1.19 15.81,-1.19l-2.47,-13.7z"/>
  <rect id="svg_70" fill="#3f3d56" transform="rotate(27.040000915527344 211.1100006103517,-158.77999877929693) " rx="1.54" height="45.29" width="58.33" y="245.03" x="441.47"/>
  <rect id="svg_71" fill="#6c63ff" transform="rotate(27.040000915527344 211.10000610351562,-158.83000183105472) " height="36.95" width="49.03" y="249.09" x="446.19001"/>
  <circle id="svg_72" fill="#e6e8ec" r="0.8" cy="326.96" cx="224.97"/>
  <circle id="svg_73" fill="#e6e8ec" r="1.33" cy="351.18" cx="272.24"/>
  <path id="svg_74" fill="#ee8e9e" d="m249.84,341.76c-0.1,12.06 24.84,14.62 24.84,14.62l6.37,1l2.86,0.45l1.19,-11.78s-1.31,-0.2 -2.94,-0.58c-2.42,-0.56 -5.55,-1.53 -6.2,-2.9c-1.05,-2.27 -26.05,-12.87 -26.12,-0.81z"/>
  <path id="svg_75" opacity="0.1" d="m288.02,263.79a2.48,2.48 0 0 1 1.53,0.68c0.7,0.75 0.74,2.08 1.66,2.54a1.92,1.92 0 0 0 1.09,0.12c2.43,-0.34 3.83,-3.08 6.17,-3.84a6.19,6.19 0 0 1 4.08,0.35a3.19,3.19 0 0 1 1.36,0.87c0.78,1 0.23,2.5 0.59,3.72c0.5,1.7 2.53,2.37 4.28,2.59s3.73,0.35 4.9,1.67a4.44,4.44 0 0 1 0.87,3.54a2.76,2.76 0 0 0 0,1.31c0.48,1.37 2.85,1.16 3.47,0.08c0.46,-0.79 0.32,-1.44 1.39,-1.66a4.53,4.53 0 0 1 2.23,0.39a16.54,16.54 0 0 0 5.79,0.89a20.92,20.92 0 1 0 -39.4,-13.25l-0.01,0z"/>
  <path id="svg_76" fill="#3f3d56" d="m314.54,276.79a2.77,2.77 0 0 1 0,-1.31a4.41,4.41 0 0 0 -0.87,-3.53c-1.17,-1.33 -3.14,-1.45 -4.9,-1.68s-3.78,-0.89 -4.28,-2.59c-0.36,-1.22 0.19,-2.71 -0.59,-3.71a3,3 0 0 0 -1.36,-0.87a6.2,6.2 0 0 0 -4.08,-0.36c-2.34,0.76 -3.74,3.5 -6.17,3.84a1.84,1.84 0 0 1 -1.09,-0.12c-0.92,-0.46 -1,-1.79 -1.66,-2.54c-1.11,-1.17 -3.22,-0.41 -4.57,-1.28a4.21,4.21 0 0 1 -1.48,-2.71a13.14,13.14 0 0 1 -0.4,-6.06c0.79,-3.39 3.83,-5.72 5.76,-8.63c1.81,-2.7 2.83,-6.12 5.54,-7.91s6.2,-1.39 9.27,-0.48a26.16,26.16 0 0 0 4.34,1.14c2.47,0.3 4.95,-0.37 7.43,-0.45a15.9,15.9 0 0 1 9.82,3a5.37,5.37 0 0 1 1.6,1.62a8.41,8.41 0 0 1 0.72,2.91a14.78,14.78 0 0 0 1.93,5.34c0.76,1.29 1.73,2.45 2.42,3.78a5.86,5.86 0 0 1 0.66,4.33c-0.24,0.75 -0.7,1.43 -0.88,2.2c-0.4,1.78 0.77,3.49 1.57,5.13a9.62,9.62 0 0 1 1.07,4.87a6.1,6.1 0 0 1 -2.19,4.38a7.91,7.91 0 0 1 -4.63,1.41a16.65,16.65 0 0 1 -5.9,-0.89a4.65,4.65 0 0 0 -2.23,-0.39c-1.07,0.22 -0.93,0.87 -1.39,1.66c-0.61,1.06 -2.97,1.27 -3.46,-0.1z"/>
  <path id="svg_77" opacity="0.1" d="m303.27,394.74l11.79,-9.22l18.54,-18.27l-6.12,-0.28a4,4 0 0 0 -1.29,2.5c-0.09,2.23 -5,0.15 -7.57,1.43s-15.07,17.3 -17.26,17.19s-3.93,-1.11 -4.85,0.44l-0.06,0.1a2.58,2.58 0 0 1 -1.4,0.83l8.22,5.28z"/>
  <path id="svg_78" fill="#65617d" d="m279.52,394.1l5.92,18.91l0.93,3l2.82,-0.77l6.22,-1.71l27.68,-7.6a24.07,24.07 0 0 0 10,-2.66a30.17,30.17 0 0 1 17.2,-3.75c3.66,0.34 7.73,-1.24 11.11,-7.48c0,0 7.67,-22.65 -11.69,-29.14s-20.29,3.45 -20.29,3.45l-0.27,0.16c-0.75,0.48 -2.85,2 -2.93,3.82c-0.09,2.23 -5,0.16 -7.57,1.43s-15.07,17.3 -17.26,17.19s-3.93,-1.11 -4.85,0.45l-0.06,0.1c-0.68,0.93 -2.71,1.15 -4.06,1.18a12,12 0 0 1 -1.26,0l-0.18,0.05l-1.4,0.42l-10.06,2.95z"/>
  <path id="svg_79" opacity="0.1" d="m281.05,357.39l2.86,0.45l1.19,-11.78s-1.31,-0.2 -2.94,-0.58c0.43,1.65 -0.55,8 -1.11,11.91z"/>
  <path id="svg_80" opacity="0.1" d="m355.75,302.33s8.49,-2.47 6.39,21.65a67.44,67.44 0 0 1 -17.81,39.37s-18.09,7.94 -26.22,6.66s-14.06,-1.55 -14.06,-1.55a20.67,20.67 0 0 0 -8.23,-2.19c-4.56,-0.18 -14.15,-3 -14.34,-3.93s2.38,-14.34 1.28,-15.34c0,0 12.79,0.52 14.07,1.44s3.11,0.27 4.48,0s5.57,-3.91 13.88,-0.71c0,0 2.83,0.27 3.93,-0.46a3.93,3.93 0 0 1 2.86,-0.18a7.85,7.85 0 0 0 2,-1c0.27,-0.36 2.47,0 2.47,0a1,1 0 0 0 1.37,-0.64a6,6 0 0 1 1.28,-2s2.46,-13.88 7.12,-19.09a3,3 0 0 0 1,-2.65c-0.38,-1.48 7.57,-22.31 18.53,-19.38z"/>
  <path id="svg_81" fill="#3f3d56" d="m355.52,300.47s8.5,-2.46 6.4,21.65a67.39,67.39 0 0 1 -17.81,39.37s-18.09,7.95 -26.22,6.67s-14.07,-1.58 -14.07,-1.58a20.59,20.59 0 0 0 -8.22,-2.19c-4.57,-0.19 -14.16,-3 -14.34,-3.93s2.37,-14.34 1.28,-15.35c0,0 12.79,0.53 14.07,1.45s3.1,0.26 4.47,0s5.57,-3.91 13.89,-0.72c0,0 2.83,0.28 3.92,-0.45a4,4 0 0 1 2.86,-0.19a8.31,8.31 0 0 0 2,-1c0.27,-0.37 2.46,0 2.46,0a1,1 0 0 0 1.37,-0.64a6,6 0 0 1 1.28,-2s2.47,-13.88 7.13,-19.09a3,3 0 0 0 1,-2.65c-0.37,-1.44 7.57,-22.24 18.53,-19.35z"/>
  <path id="svg_82" opacity="0.1" d="m289.55,391.1l12.06,14.6l0.08,-0.08c0.09,-0.28 1.28,-3.38 1,-3.57s-2.37,-4.75 -6.57,-6.67a12.46,12.46 0 0 1 -5.17,-4.7l-1.4,0.42z"/>
  <path id="svg_83" opacity="0.1" d="m289.71,416.37l1.32,0.75s3.06,-2.45 6.11,-4.92s6,-4.89 6,-5s1.28,-3.38 1,-3.56s-0.77,-1.36 -1.93,-2.83c-8.18,-2.29 -3,3.39 -2.28,3.65c0,0 -9.95,-2.29 -10.5,8.56a13.42,13.42 0 0 0 0.28,3.35z"/>
  <path id="svg_84" fill="#3f3d56" d="m299.8,420.96l1.74,1l17.63,0.45a35.31,35.31 0 0 0 6.24,3a5.86,5.86 0 0 0 0.88,0.19a39,39 0 0 0 4.92,0.09c1.35,0 2.39,-0.09 2.39,-0.09s-0.83,-22.23 -1.46,-24.57c-0.3,-1.12 -1.78,-0.88 -3.24,-0.32a22.09,22.09 0 0 0 -3.16,1.6s-7.48,0.73 -8.67,1.37s-4.57,-0.37 -6.67,0s-5.85,-2.47 -5.85,-2.47c-10.23,-3.38 -4.47,2.92 -3.74,3.2c0,0 -10,-2.29 -10.51,8.56s9.5,7.99 9.5,7.99z"/>
  <path id="svg_85" fill="#565387" d="m325.29,412.38c0.19,4.6 3.78,10.31 5.92,13.33c1.35,0 2.39,-0.09 2.39,-0.09s-0.83,-22.23 -1.46,-24.57c-0.3,-1.12 -1.78,-0.88 -3.24,-0.32c-1.77,3.32 -3.77,7.93 -3.61,11.65z"/>
  <path id="svg_86" opacity="0.1" d="m325.29,412.38c0.19,4.6 3.78,10.31 5.92,13.33c1.35,0 2.39,-0.09 2.39,-0.09s-0.83,-22.23 -1.46,-24.57c-0.3,-1.12 -1.78,-0.88 -3.24,-0.32c-1.77,3.32 -3.77,7.93 -3.61,11.65z"/>
  <path id="svg_87" opacity="0.05" d="m322.27,412.99c1.22,4.44 1.2,9.42 3.14,12.44a5.86,5.86 0 0 0 0.88,0.19a39,39 0 0 0 4.92,0.09c1.35,0 2.39,-0.09 2.39,-0.09s-0.83,-22.23 -1.46,-24.57c-0.3,-1.12 -1.78,-0.88 -3.24,-0.32a22.09,22.09 0 0 0 -3.16,1.6s-5.02,4.97 -3.47,10.66z"/>
  <path id="svg_88" opacity="0.1" d="m261.45,367.92s8.76,2.84 16.18,12.94l-16.18,-12.94z"/>
  <g id="svg_89" opacity="0.1">
   <path id="svg_90" d="m332.61,258.3c0,0.07 0,0.13 -0.05,0.2a5.51,5.51 0 0 1 -0.31,0.76a7,7 0 0 1 0.36,-0.96z"/>
   <path id="svg_91" d="m283.07,253.87a7.81,7.81 0 0 1 0.68,-1.84c0,0.15 -0.1,0.31 -0.14,0.47a13.28,13.28 0 0 0 0.41,6.06a4.24,4.24 0 0 0 1.47,2.71c1.36,0.87 3.47,0.11 4.58,1.28c0.7,0.75 0.74,2.08 1.66,2.54a1.84,1.84 0 0 0 1.09,0.12c2.43,-0.34 3.83,-3.08 6.17,-3.84a6.14,6.14 0 0 1 4.08,0.36a3,3 0 0 1 1.36,0.87c0.78,1 0.23,2.49 0.59,3.71c0.5,1.7 2.53,2.37 4.28,2.59s3.73,0.35 4.9,1.68a4.41,4.41 0 0 1 0.87,3.53a2.77,2.77 0 0 0 0,1.31c0.48,1.37 2.85,1.16 3.47,0.08c0.46,-0.79 0.32,-1.44 1.39,-1.66a4.65,4.65 0 0 1 2.23,0.39a16.65,16.65 0 0 0 5.9,0.89a7.91,7.91 0 0 0 4.63,-1.41a5.18,5.18 0 0 0 1.42,-1.73a5.76,5.76 0 0 1 -2,3.1a7.91,7.91 0 0 1 -4.63,1.41a16.65,16.65 0 0 1 -5.9,-0.89a4.65,4.65 0 0 0 -2.23,-0.39c-1.07,0.22 -0.93,0.87 -1.38,1.66c-0.63,1.08 -3,1.29 -3.48,-0.08a2.9,2.9 0 0 1 0,-1.31a4.41,4.41 0 0 0 -0.87,-3.53c-1.17,-1.33 -3.14,-1.45 -4.9,-1.68s-3.78,-0.89 -4.28,-2.59c-0.36,-1.22 0.19,-2.71 -0.59,-3.71a3,3 0 0 0 -1.35,-0.87a6.23,6.23 0 0 0 -4.09,-0.36c-2.33,0.76 -3.74,3.5 -6.17,3.84a1.84,1.84 0 0 1 -1.09,-0.12c-0.92,-0.46 -1,-1.79 -1.66,-2.54c-1.11,-1.17 -3.21,-0.41 -4.57,-1.28a4.21,4.21 0 0 1 -1.48,-2.71a13.14,13.14 0 0 1 -0.37,-6.06z"/>
  </g>
  <path id="svg_92" opacity="0.1" d="m334.03,326.99c-1.68,2.26 -3.59,4.35 -5.07,6.73a12.81,12.81 0 0 0 -2.22,8c1.53,-1.57 2.24,-3.75 3.2,-5.72c1.64,-3.34 4.08,-6.17 6.15,-9.23c0.39,-0.59 2.91,-4 1.64,-4.14c-1.06,-0.15 -3.13,3.59 -3.7,4.36z"/>
  <path id="svg_93" fill="#a1616a" d="m343.03,540.96c1.21,3.88 2.43,7.77 3.94,11.54a98.15,98.15 0 0 0 10.21,18.61a135.06,135.06 0 0 0 8.44,11.06c3.76,4.43 8,8.89 9.28,14.55c0.77,3.27 0.51,6.68 0.83,10s1.41,6.88 4.12,8.88c1.93,1.43 4.4,1.86 6.77,2.23c1.7,0.27 3.82,0.36 4.7,-1.11a4.27,4.27 0 0 0 0.47,-1.94l0.41,-4.89c0.08,-1.06 0.46,-2.41 1.52,-2.46s1.59,1.36 2.49,2c1.2,0.84 3,0 3.66,-1.27a6.17,6.17 0 0 0 0.1,-4.3a20.37,20.37 0 0 0 -10.47,-13a30,30 0 0 1 -5.1,-2.65a17.43,17.43 0 0 1 -4,-5.06c-9.28,-15.28 -18.61,-30.64 -25.16,-47.27a35,35 0 0 1 -2.59,-9.32c-0.32,-3.27 0.19,-6.56 0.4,-9.84a56,56 0 0 0 -1.62,-17.53a14,14 0 0 0 -1.67,-4.26c-2.7,-4.09 -9,-4.7 -13,-1.88a13.4,13.4 0 0 0 -5.18,9.47c-0.29,3.32 1.62,6.76 2.59,9.85q4.41,14.31 8.86,28.59z"/>
  <path id="svg_94" opacity="0.05" d="m343.03,540.96c1.21,3.88 2.43,7.77 3.94,11.54a98.15,98.15 0 0 0 10.21,18.61a135.06,135.06 0 0 0 8.44,11.06c3.76,4.43 8,8.89 9.28,14.55c0.77,3.27 0.51,6.68 0.83,10s1.41,6.88 4.12,8.88c1.93,1.43 4.4,1.86 6.77,2.23c1.7,0.27 3.82,0.36 4.7,-1.11a4.27,4.27 0 0 0 0.47,-1.94l0.41,-4.89c0.08,-1.06 0.46,-2.41 1.52,-2.46s1.59,1.36 2.49,2c1.2,0.84 3,0 3.66,-1.27a6.17,6.17 0 0 0 0.1,-4.3a20.37,20.37 0 0 0 -10.47,-13a30,30 0 0 1 -5.1,-2.65a17.43,17.43 0 0 1 -4,-5.06c-9.28,-15.28 -18.61,-30.64 -25.16,-47.27a35,35 0 0 1 -2.59,-9.32c-0.32,-3.27 0.19,-6.56 0.4,-9.84a56,56 0 0 0 -1.62,-17.53a14,14 0 0 0 -1.67,-4.26c-2.7,-4.09 -9,-4.7 -13,-1.88a13.4,13.4 0 0 0 -5.18,9.47c-0.29,3.32 1.62,6.76 2.59,9.85q4.41,14.31 8.86,28.59z"/>
  <path id="svg_95" fill="#514e7f" d="m284.73,704.34a13.33,13.33 0 0 0 5.64,0.68c0.14,-1.56 2.24,-1.91 3.8,-1.83a4.34,4.34 0 0 1 2.17,0.5c0.39,0.25 0.69,0.61 1.07,0.87a4.63,4.63 0 0 0 2.21,0.57l8.12,0.68c3.62,0.31 7.39,0.59 10.78,-0.7a3.72,3.72 0 0 0 1.73,-1.16c0.92,-1.32 0,-3.21 -1.27,-4.17s-2.91,-1.39 -4.19,-2.37c-2.82,-2.15 -3.21,-6.17 -4.7,-9.39a27.71,27.71 0 0 0 -3.89,-5.63a21.61,21.61 0 0 0 -3.83,-3.93c-3.26,-2.35 -7,-2.3 -10.83,-2.64c-2.7,-0.24 -5.24,-0.4 -7.18,2c-2.4,3 -1.44,9 -1.29,12.5a90.47,90.47 0 0 0 1.66,14.02z"/>
  <path id="svg_96" opacity="0.05" d="m284.73,704.34a13.33,13.33 0 0 0 5.64,0.68c0.14,-1.56 2.24,-1.91 3.8,-1.83a4.34,4.34 0 0 1 2.17,0.5c0.39,0.25 0.69,0.61 1.07,0.87a4.63,4.63 0 0 0 2.21,0.57l8.12,0.68c3.62,0.31 7.39,0.59 10.78,-0.7a3.72,3.72 0 0 0 1.73,-1.16c0.92,-1.32 0,-3.21 -1.27,-4.17s-2.91,-1.39 -4.19,-2.37c-2.82,-2.15 -3.21,-6.17 -4.7,-9.39a27.71,27.71 0 0 0 -3.89,-5.63a21.61,21.61 0 0 0 -3.83,-3.93c-3.26,-2.35 -7,-2.3 -10.83,-2.64c-2.7,-0.24 -5.24,-0.4 -7.18,2c-2.4,3 -1.44,9 -1.29,12.5a90.47,90.47 0 0 0 1.66,14.02z"/>
  <path id="svg_97" fill="#464353" d="m288.01,546.39c-2.48,0.8 -3.56,3.89 -3.1,6.46s2,4.79 3.27,7.07c3.62,6.47 5.18,13.87 8.22,20.62c2.27,5 5.34,9.7 7.58,14.76s3.63,10.77 2.27,16.14c-0.66,2.61 -1.94,5 -2.79,7.57a42,42 0 0 0 -1.64,8.55a162.39,162.39 0 0 0 -0.59,29.66a8.86,8.86 0 0 0 0.74,3.5c0.51,1 1.39,2 1,3c-0.17,0.41 -0.54,0.71 -0.72,1.11c-0.52,1.12 0.52,2.31 1.47,3.11a2.59,2.59 0 0 1 -1.59,1.23a3.76,3.76 0 0 1 1.6,4.19c-0.84,0.13 -0.89,1.42 -0.36,2.1s1.37,1.1 1.75,1.87a2.61,2.61 0 0 1 -1.44,3.28a6.85,6.85 0 0 1 -3.92,0.3a43,43 0 0 1 -6.55,-1.44a4.74,4.74 0 0 1 -3.82,-4.9a72.81,72.81 0 0 1 -0.45,-12.27c0.35,-19.84 0,-39.7 -0.86,-59.53c-0.35,-8 -2.75,-15.75 -5.84,-23.11a121.29,121.29 0 0 0 -5.69,-11c-4.46,-8.16 -8.4,-17.2 -7.38,-26.45c0.11,-1 0.47,-2.19 1.46,-2.35a2.12,2.12 0 0 1 1.13,0.19a50.81,50.81 0 0 1 5.95,3.28a22.46,22.46 0 0 0 10.3,3.06z"/>
  <path id="svg_98" opacity="0.05" d="m288.01,546.39c-2.48,0.8 -3.56,3.89 -3.1,6.46s2,4.79 3.27,7.07c3.62,6.47 5.18,13.87 8.22,20.62c2.27,5 5.34,9.7 7.58,14.76s3.63,10.77 2.27,16.14c-0.66,2.61 -1.94,5 -2.79,7.57a42,42 0 0 0 -1.64,8.55a162.39,162.39 0 0 0 -0.59,29.66a8.86,8.86 0 0 0 0.74,3.5c0.51,1 1.39,2 1,3c-0.17,0.41 -0.54,0.71 -0.72,1.11c-0.52,1.12 0.52,2.31 1.47,3.11a2.59,2.59 0 0 1 -1.59,1.23a3.76,3.76 0 0 1 1.6,4.19c-0.84,0.13 -0.89,1.42 -0.36,2.1s1.37,1.1 1.75,1.87a2.61,2.61 0 0 1 -1.44,3.28a6.85,6.85 0 0 1 -3.92,0.3a43,43 0 0 1 -6.55,-1.44a4.74,4.74 0 0 1 -3.82,-4.9a72.81,72.81 0 0 1 -0.45,-12.27c0.35,-19.84 0,-39.7 -0.86,-59.53c-0.35,-8 -2.75,-15.75 -5.84,-23.11a121.29,121.29 0 0 0 -5.69,-11c-4.46,-8.16 -8.4,-17.2 -7.38,-26.45c0.11,-1 0.47,-2.19 1.46,-2.35a2.12,2.12 0 0 1 1.13,0.19a50.81,50.81 0 0 1 5.95,3.28a22.46,22.46 0 0 0 10.3,3.06z"/>
  <path id="svg_99" fill="#464353" d="m254.48,522.27a8.62,8.62 0 0 0 -4.32,-1.36c-1.78,0.09 -3.3,1.26 -4.69,2.38a48,48 0 0 0 -4.68,4.1a24.94,24.94 0 0 0 -5.56,24.68c1.47,4.41 4.16,8.3 6.82,12.11l5.4,7.76c8.24,11.83 16.48,23.66 25.11,35.21a1.34,1.34 0 0 0 0.94,1.27c0.31,0.08 0.7,0.07 0.89,0.33a0.94,0.94 0 0 1 0.11,0.53a7.65,7.65 0 0 1 -0.48,2.5a1.19,1.19 0 0 0 -0.1,0.86c0.28,0.65 1.46,0.28 1.84,0.89c0.25,0.4 -0.06,0.92 -0.39,1.26s-0.74,0.72 -0.68,1.19s0.88,1 0.85,1.58c0,0.34 -0.3,0.6 -0.51,0.87a2.23,2.23 0 0 0 0.27,2.84c0.57,5.64 -2.5,11 -3.11,16.62c-1,8.88 3.05,17.55 3.54,26.46a6.85,6.85 0 0 0 0.56,2.92c0.83,1.54 3,2.47 2.89,4.22a16.9,16.9 0 0 1 -0.61,2.12c-0.17,1 0.31,2 0.33,3s-0.87,2.23 -1.81,1.83q1.06,3.54 1.89,7.14l18.9,1.56a16.77,16.77 0 0 0 -0.17,-5.1c-0.39,-1.83 -1.21,-3.53 -1.64,-5.34a6.32,6.32 0 0 1 0.74,-5.35a2.09,2.09 0 0 1 -2.08,-1.71a8.31,8.31 0 0 1 0.05,-2.94c0.5,-4.93 -1.57,-9.79 -1.51,-14.74c0.06,-3.9 1.43,-7.65 2.12,-11.48c1.48,-8.2 -0.06,-17.09 3.59,-24.58c2.21,-4.51 5.27,-9.51 2.79,-13.88c-1.22,-2.16 -3.38,-3.64 -4.79,-5.68a23.11,23.11 0 0 1 -2.56,-6.19c-2.91,-9 -7.62,-17.36 -11.75,-25.92a27,27 0 0 1 -2.53,-6.81a35.7,35.7 0 0 1 -0.32,-6.29a92.72,92.72 0 0 0 -0.69,-11.29a10.74,10.74 0 0 0 -1.37,-4.67a10.45,10.45 0 0 0 -3,-2.69c-6.2,-4.25 -13.58,-6.68 -20.28,-10.21z"/>
  <path id="svg_100" fill="#514e7f" d="m277.13,711.27a13.55,13.55 0 0 0 5.65,0.67c0.14,-1.56 2.23,-1.91 3.79,-1.83a4.34,4.34 0 0 1 2.17,0.5c0.39,0.25 0.69,0.62 1.08,0.87a4.52,4.52 0 0 0 2.21,0.57l8.11,0.68c3.63,0.31 7.39,0.6 10.79,-0.7a3.62,3.62 0 0 0 1.72,-1.16c0.92,-1.32 0,-3.2 -1.27,-4.16s-2.91,-1.4 -4.18,-2.38c-2.83,-2.15 -3.21,-6.16 -4.71,-9.38a27.07,27.07 0 0 0 -3.88,-5.64a21.6,21.6 0 0 0 -3.84,-3.92c-3.25,-2.36 -7,-2.31 -10.82,-2.65c-2.71,-0.24 -5.25,-0.39 -7.18,2c-2.4,3 -1.44,9 -1.3,12.51a90.61,90.61 0 0 0 1.66,14.02z"/>
  <circle id="svg_101" fill="#a1616a" r="18.72" cy="470.82" cx="360.9"/>
  <path id="svg_102" fill="#a1616a" d="m343.24,476.38c-2.68,2.31 -6.53,2.48 -10.05,2.84a63.12,63.12 0 0 0 -21.63,6.26a7.8,7.8 0 0 0 -2.5,1.72a7.06,7.06 0 0 0 -1.27,2.68a17.51,17.51 0 0 0 -0.71,6.51a18.55,18.55 0 0 0 1.81,6.12a33,33 0 0 0 11.6,13.23a8.5,8.5 0 0 0 2.94,1.41c2.46,0.51 4.84,-0.91 7.27,-1.55a11.88,11.88 0 0 1 6.71,0.21c2,0.68 4.19,1.92 6.17,1.09a6.33,6.33 0 0 0 2.79,-3.18a108.21,108.21 0 0 0 5.11,-11.14a42.85,42.85 0 0 1 1.85,-4.36c2.17,-4.13 5.92,-7.32 7.79,-11.61a2.55,2.55 0 0 0 0.18,-2.18a3,3 0 0 0 -1.38,-1.05a32.81,32.81 0 0 1 -7.48,-5.87c-1.23,-1.18 -3.49,-4.37 -5.26,-4.65c-1.99,-0.34 -2.59,2.36 -3.94,3.52z"/>
  <path id="svg_103" fill="#6c63ff" d="m343.68,514.42c-2.17,1 -4.73,0.57 -7.08,0.08c-6.06,-1.27 -12.19,-2.55 -17.8,-5.17a9.64,9.64 0 0 1 -4.37,-3.36a11,11 0 0 1 -1.22,-4.19l-1,-7c-0.36,-2.43 0.26,-4.68 0.32,-7.14a2.07,2.07 0 0 0 -0.41,-1.55a1.69,1.69 0 0 0 -1.23,-0.39c-2.81,0.05 -4.51,3 -6.48,5a12,12 0 0 1 -4,2.68c-1.8,0.74 -4,1.26 -4.75,3.06c-0.3,0.75 -0.26,1.6 -0.58,2.35c-1.26,3 -6.63,2 -8,5c-0.39,0.84 -0.36,1.89 -1,2.55s-1.84,0.65 -2.83,0.81c-3.91,0.64 -5.8,5.15 -9.14,7.28c-2.81,1.8 -6.43,1.76 -9.46,3.16c-1.68,0.78 -3.17,2 -4.95,2.51s-3.79,0.24 -5.7,0.29a1.49,1.49 0 0 0 -1.13,0.37a1.51,1.51 0 0 0 -0.19,1.24a34.46,34.46 0 0 0 21.29,26.68a7.12,7.12 0 0 1 1.82,0.88c1.7,1.27 2,4 3.93,4.9a4,4 0 0 0 4.09,-0.88a36.68,36.68 0 0 0 3,-3.26a11.75,11.75 0 0 1 6.59,-3.47c2.32,-0.37 4.91,-0.1 6.79,-1.53a21.05,21.05 0 0 0 2.14,-2.28a13.44,13.44 0 0 1 4.85,-2.9a49.58,49.58 0 0 1 15.43,-3.39c4.93,-0.27 10,0.18 14.66,-1.42a8.84,8.84 0 0 0 3.27,-1.85a9.83,9.83 0 0 0 2.18,-3.79a29,29 0 0 0 0.96,-15.27z"/>
  <path id="svg_104" fill="#6c63ff" d="m319.55,486.83c1.38,-0.13 2.77,0 4.16,0c1.63,0 3.24,-0.4 4.87,-0.41a12.11,12.11 0 0 1 11.42,8.69a2.25,2.25 0 0 1 0.07,1.23a0.87,0.87 0 0 1 -0.94,0.64a20.73,20.73 0 0 0 -2.11,-4.21a11.83,11.83 0 0 0 -6.28,-4.38a16.26,16.26 0 0 0 -7.72,-0.28c-1.07,0.2 -2.11,0.48 -3.15,0.77l-5,1.38c-0.92,0.25 -1.85,0.5 -2.74,0.83c-0.69,0.26 -1.87,1.21 -2.55,1.25c-0.92,0 -0.18,-0.8 0.23,-1.34a6.65,6.65 0 0 1 3.27,-2.38a28.32,28.32 0 0 1 6.47,-1.79z"/>
  <path id="svg_105" fill="#a1616a" d="m332.17,543.06c1.21,3.88 2.42,7.77 3.94,11.54a97.6,97.6 0 0 0 10.21,18.61a135.06,135.06 0 0 0 8.44,11.06c3.75,4.43 7.94,8.89 9.28,14.54c0.77,3.28 0.51,6.69 0.83,10s1.41,6.88 4.11,8.88c1.94,1.42 4.41,1.85 6.78,2.23c1.69,0.27 3.81,0.36 4.7,-1.11a4.44,4.44 0 0 0 0.47,-1.94l0.4,-4.89c0.09,-1.06 0.47,-2.41 1.52,-2.46s1.6,1.36 2.5,2c1.2,0.84 3,0 3.66,-1.27a6.22,6.22 0 0 0 0.1,-4.3a20.43,20.43 0 0 0 -10.47,-13a30.52,30.52 0 0 1 -5.11,-2.65a17.31,17.31 0 0 1 -4,-5.07c-9.29,-15.27 -18.62,-30.63 -25.16,-47.27a35.26,35.26 0 0 1 -2.6,-9.31c-0.31,-3.27 0.19,-6.56 0.41,-9.84a56,56 0 0 0 -1.62,-17.53a13.79,13.79 0 0 0 -1.68,-4.26c-2.69,-4.1 -9,-4.7 -13,-1.88a13.41,13.41 0 0 0 -5.19,9.47c-0.29,3.32 1.63,6.76 2.59,9.85q4.43,14.32 8.89,28.6z"/>
  <path id="svg_106" fill="#464353" d="m388.13,457.58c0.15,-1.56 -1.25,-3 -2.84,-4a37.6,37.6 0 0 1 -4.81,-2.94c-1.42,-1.23 -2.2,-2.83 -3.62,-4.06a16.09,16.09 0 0 0 -5.4,-2.69a41.12,41.12 0 0 0 -12.92,-2.31c-4.45,0 -9,1 -12.35,3.27a7.31,7.31 0 0 0 -2.1,2a8.58,8.58 0 0 0 -1,3.1a61.18,61.18 0 0 1 -3.23,9.81c-1.39,3.53 -2.87,7.19 -6.14,9.92c-3.5,2.91 -8.85,4.59 -11.16,8.11a2.6,2.6 0 0 0 -0.51,2.27c0.33,0.89 1.39,1.5 2.37,2.06c5.68,3.26 10.58,7.49 13.1,12.54s2.45,11 -1.14,15.65c-1.32,1.72 -3.14,3.76 -1.85,5.49c2,2.63 8.69,1.12 10.25,3.9c0.49,0.89 0.2,1.9 0.2,2.87c0,2.92 2.81,5.51 6.22,6.86s7.36,1.67 11.2,1.84a9.78,9.78 0 0 0 0.28,-7.25a2.92,2.92 0 0 1 -0.29,-1.65a4,4 0 0 1 1.29,-1.58c4.1,-3.88 3.23,-9.58 0.77,-14.19s-6.3,-8.82 -7.73,-13.67c-0.71,-2.41 -0.71,-5.12 1.2,-7.12a24.05,24.05 0 0 1 3.53,-2.57a13.34,13.34 0 0 0 4.94,-6.2c1.15,-3.19 1,-7 4.34,-9.15c3.21,-2 7.72,-1.42 11.27,-2.79c2.73,-1.08 5.91,-5.23 6.13,-7.52z"/>
  <path id="svg_110" d="m587.91,629" opacity="0.5" fill-opacity="null" stroke-opacity="null" stroke-width="null" stroke="null" fill="url(#afa9d3b0-698e-4c8c-85f1-7e162fccf1ba)"/>
  <circle id="svg_111" opacity="0.8" fill="#ffff00" r="9.82" cy="435.48" cx="872.33"/>
 </g>
</svg>