<?xml version="1.0" encoding="UTF-8" standalone="no"?>
<!-- Created with Inkscape (http://www.inkscape.org/) -->
<svg xmlns:svg="http://www.w3.org/2000/svg" xmlns="http://www.w3.org/2000/svg" version="1.0" width="814.96063"
    height="160.51181" id="svg2479">
    <defs id="defs2481" />
    <g transform="translate(-20.295655,-263.71915)" id="layer1">
        <g transform="matrix(2.2401497,0,0,2.2401497,-135.46166,-406.96643)" id="g3105">
            <path
                d="M 77.43851,309.11321 L 124.93186,309.11321 L 124.93186,321.3671 L 108.94852,321.3671 L 108.94852,361.55378 L 93.8024,361.55378 L 93.8024,321.44321 L 77.43851,321.3671 L 77.43851,309.11321"
                style="fill:#e11c41;fill-rule:nonzero;stroke:none" id="path3506" />
            <path
                d="M 153.09299,307.28654 C 172.34911,307.28654 177.60077,313.60376 177.60077,335.21933 C 177.60077,356.83488 172.34911,363.15212 153.09299,363.15212 C 133.91298,363.15212 128.66131,356.83488 128.66131,335.21933 C 128.66131,313.60376 133.91298,307.28654 153.09299,307.28654 z M 143.80744,344.35267 C 143.80744,349.60433 150.20076,349.60433 153.09299,349.60433 C 156.06132,349.60433 162.98744,349.60433 162.98744,344.35267 L 162.98744,327.45599 C 162.98744,321.3671 156.06132,320.60599 153.09299,320.60599 C 150.20076,320.60599 143.80744,321.3671 143.80744,327.45599 L 143.80744,344.35267"
                style="fill:#e11c41;fill-rule:nonzero;stroke:none" id="path3508" />
            <path
                d="M 217.02634,325.17266 C 217.02634,321.97599 217.02634,319.46432 209.49134,319.46432 C 201.34744,319.46432 201.49966,322.66098 201.49966,324.63988 C 201.49966,334.45821 231.71579,320.60599 231.71579,344.80933 C 231.71579,361.55378 221.97357,362.46711 209.33911,362.46711 C 191.68134,362.46711 186.96244,359.651 186.96244,344.35267 L 201.34744,344.35267 C 201.42356,346.40766 201.80411,348.38655 202.413,349.60433 C 202.79355,350.44156 208.34966,350.36544 210.02412,350.36544 C 215.80856,350.28933 217.40689,350.28933 217.40689,346.25544 C 217.40689,334.306 186.96244,347.16877 186.96244,327.91266 C 186.96244,310.86377 195.6391,307.28654 210.70912,307.28654 C 229.58468,307.28654 230.49801,316.57209 230.49801,325.17266 L 217.02634,325.17266"
                style="fill:#e11c41;fill-rule:nonzero;stroke:none" id="path3510" />
            <path
                d="M 241.15357,309.11321 L 255.7669,309.11321 L 255.7669,327.91266 L 272.66358,327.91266 L 272.66358,309.11321 L 287.1247,309.11321 L 287.1247,361.55378 L 272.66358,361.55378 L 272.66358,341.68877 L 255.7669,341.68877 L 255.7669,361.55378 L 241.15357,361.55378 L 241.15357,309.11321"
                style="fill:#e11c41;fill-rule:nonzero;stroke:none" id="path3512" />
            <path
                d="M 298.54136,361.55378 L 313.38304,361.55378 L 313.38304,309.11321 L 298.54136,309.11321 L 298.54136,361.55378 z "
                style="fill:#e11c41;fill-rule:nonzero;stroke:none" id="path3514" />
            <path
                d="M 325.10416,309.11321 L 350.52527,308.88488 C 365.44305,308.88488 368.86805,313.07099 368.86805,321.3671 C 368.86805,330.04377 367.95472,332.02266 360.57194,334.3821 L 360.57194,334.53433 C 367.04139,335.44766 369.7814,338.87266 369.7814,347.85377 C 369.7814,354.47544 367.19361,361.55378 354.17861,361.55378 L 325.10416,361.55378 L 325.10416,309.11321 z M 340.25028,349.07155 L 350.22083,349.07155 C 353.18917,349.07155 354.71138,347.54932 354.71138,344.35267 C 354.71138,341.07988 352.35194,340.16655 349.91638,340.16655 L 340.25028,340.16655 L 340.25028,349.07155 z M 340.25028,329.20655 L 350.44917,329.20655 C 352.96084,329.20655 353.79805,327.83654 353.79805,325.17266 C 353.79805,322.50877 352.80861,321.3671 350.29694,321.3671 L 340.25028,321.3671 L 340.25028,329.20655"
                style="fill:#e11c41;fill-rule:nonzero;stroke:none" id="path3516" />
            <path
                d="M 388.58085,309.11321 L 409.20696,309.11321 L 425.41863,361.55378 L 409.96807,361.55378 L 406.84752,351.73544 L 391.0925,351.73544 L 387.51529,361.55378 L 372.67362,361.55378 L 388.58085,309.11321 z M 394.36529,339.70989 L 403.57473,339.70989 L 398.93195,323.95488 L 394.36529,339.70989"
                style="fill:#e11c41;fill-rule:nonzero;stroke:none" id="path3518" />
        </g>
    </g>
</svg>